%TF.GenerationSoftware,KiCad,Pcbnew,7.0.5*%
%TF.CreationDate,2023-10-10T15:43:23+02:00*%
%TF.ProjectId,sharp-ce140f-emul_v2,73686172-702d-4636-9531-3430662d656d,rev?*%
%TF.SameCoordinates,Original*%
%TF.FileFunction,Legend,Top*%
%TF.FilePolarity,Positive*%
%FSLAX46Y46*%
G04 Gerber Fmt 4.6, Leading zero omitted, Abs format (unit mm)*
G04 Created by KiCad (PCBNEW 7.0.5) date 2023-10-10 15:43:23*
%MOMM*%
%LPD*%
G01*
G04 APERTURE LIST*
%ADD10C,0.120000*%
%ADD11C,0.250000*%
%ADD12C,0.150000*%
%ADD13C,0.127000*%
%ADD14C,0.100000*%
%ADD15C,0.200000*%
G04 APERTURE END LIST*
D10*
X147264000Y-101212000D02*
G75*
G03*
X147264000Y-101212000I-50000J0D01*
G01*
X159666500Y-106406000D02*
G75*
G03*
X159666500Y-106406000I-50000J0D01*
G01*
D11*
X157712667Y-87524000D02*
X157884714Y-87571619D01*
X157884714Y-87571619D02*
X158181381Y-87571619D01*
X158181381Y-87571619D02*
X158306000Y-87524000D01*
X158306000Y-87524000D02*
X158371286Y-87476380D01*
X158371286Y-87476380D02*
X158442524Y-87381142D01*
X158442524Y-87381142D02*
X158454429Y-87285904D01*
X158454429Y-87285904D02*
X158407000Y-87190666D01*
X158407000Y-87190666D02*
X158353619Y-87143047D01*
X158353619Y-87143047D02*
X158240905Y-87095428D01*
X158240905Y-87095428D02*
X158009524Y-87047809D01*
X158009524Y-87047809D02*
X157896810Y-87000190D01*
X157896810Y-87000190D02*
X157843429Y-86952571D01*
X157843429Y-86952571D02*
X157796000Y-86857333D01*
X157796000Y-86857333D02*
X157807905Y-86762095D01*
X157807905Y-86762095D02*
X157879143Y-86666857D01*
X157879143Y-86666857D02*
X157944429Y-86619238D01*
X157944429Y-86619238D02*
X158069048Y-86571619D01*
X158069048Y-86571619D02*
X158365714Y-86571619D01*
X158365714Y-86571619D02*
X158537762Y-86619238D01*
X158952715Y-87571619D02*
X159077715Y-86571619D01*
X159486715Y-87571619D02*
X159552191Y-87047809D01*
X159552191Y-87047809D02*
X159504762Y-86952571D01*
X159504762Y-86952571D02*
X159392048Y-86904952D01*
X159392048Y-86904952D02*
X159214048Y-86904952D01*
X159214048Y-86904952D02*
X159089429Y-86952571D01*
X159089429Y-86952571D02*
X159024143Y-87000190D01*
X160614048Y-87571619D02*
X160679524Y-87047809D01*
X160679524Y-87047809D02*
X160632095Y-86952571D01*
X160632095Y-86952571D02*
X160519381Y-86904952D01*
X160519381Y-86904952D02*
X160282048Y-86904952D01*
X160282048Y-86904952D02*
X160157429Y-86952571D01*
X160620000Y-87524000D02*
X160495381Y-87571619D01*
X160495381Y-87571619D02*
X160198714Y-87571619D01*
X160198714Y-87571619D02*
X160086000Y-87524000D01*
X160086000Y-87524000D02*
X160038572Y-87428761D01*
X160038572Y-87428761D02*
X160050476Y-87333523D01*
X160050476Y-87333523D02*
X160121714Y-87238285D01*
X160121714Y-87238285D02*
X160246334Y-87190666D01*
X160246334Y-87190666D02*
X160543000Y-87190666D01*
X160543000Y-87190666D02*
X160667619Y-87143047D01*
X161207381Y-87571619D02*
X161290714Y-86904952D01*
X161266905Y-87095428D02*
X161338143Y-87000190D01*
X161338143Y-87000190D02*
X161403428Y-86952571D01*
X161403428Y-86952571D02*
X161528047Y-86904952D01*
X161528047Y-86904952D02*
X161646714Y-86904952D01*
X162062047Y-86904952D02*
X161937047Y-87904952D01*
X162056095Y-86952571D02*
X162180714Y-86904952D01*
X162180714Y-86904952D02*
X162418047Y-86904952D01*
X162418047Y-86904952D02*
X162530761Y-86952571D01*
X162530761Y-86952571D02*
X162584142Y-87000190D01*
X162584142Y-87000190D02*
X162631571Y-87095428D01*
X162631571Y-87095428D02*
X162595857Y-87381142D01*
X162595857Y-87381142D02*
X162524619Y-87476380D01*
X162524619Y-87476380D02*
X162459333Y-87524000D01*
X162459333Y-87524000D02*
X162334714Y-87571619D01*
X162334714Y-87571619D02*
X162097380Y-87571619D01*
X162097380Y-87571619D02*
X161984666Y-87524000D01*
X164779285Y-87476380D02*
X164713999Y-87524000D01*
X164713999Y-87524000D02*
X164530046Y-87571619D01*
X164530046Y-87571619D02*
X164411380Y-87571619D01*
X164411380Y-87571619D02*
X164239332Y-87524000D01*
X164239332Y-87524000D02*
X164132570Y-87428761D01*
X164132570Y-87428761D02*
X164085142Y-87333523D01*
X164085142Y-87333523D02*
X164049618Y-87143047D01*
X164049618Y-87143047D02*
X164067475Y-87000190D01*
X164067475Y-87000190D02*
X164150618Y-86809714D01*
X164150618Y-86809714D02*
X164221856Y-86714476D01*
X164221856Y-86714476D02*
X164352427Y-86619238D01*
X164352427Y-86619238D02*
X164536380Y-86571619D01*
X164536380Y-86571619D02*
X164655046Y-86571619D01*
X164655046Y-86571619D02*
X164827094Y-86619238D01*
X164827094Y-86619238D02*
X164880475Y-86666857D01*
X165366856Y-87047809D02*
X165782189Y-87047809D01*
X165894713Y-87571619D02*
X165301380Y-87571619D01*
X165301380Y-87571619D02*
X165426380Y-86571619D01*
X165426380Y-86571619D02*
X166019713Y-86571619D01*
X166476332Y-87190666D02*
X167425665Y-87190666D01*
X168624046Y-87571619D02*
X167912046Y-87571619D01*
X168268046Y-87571619D02*
X168393046Y-86571619D01*
X168393046Y-86571619D02*
X168256523Y-86714476D01*
X168256523Y-86714476D02*
X168125951Y-86809714D01*
X168125951Y-86809714D02*
X168001332Y-86857333D01*
X169775380Y-86904952D02*
X169692047Y-87571619D01*
X169526333Y-86524000D02*
X169140380Y-87238285D01*
X169140380Y-87238285D02*
X169911713Y-87238285D01*
X170707047Y-86571619D02*
X170825714Y-86571619D01*
X170825714Y-86571619D02*
X170938428Y-86619238D01*
X170938428Y-86619238D02*
X170991809Y-86666857D01*
X170991809Y-86666857D02*
X171039238Y-86762095D01*
X171039238Y-86762095D02*
X171074761Y-86952571D01*
X171074761Y-86952571D02*
X171045000Y-87190666D01*
X171045000Y-87190666D02*
X170961857Y-87381142D01*
X170961857Y-87381142D02*
X170890619Y-87476380D01*
X170890619Y-87476380D02*
X170825333Y-87524000D01*
X170825333Y-87524000D02*
X170700714Y-87571619D01*
X170700714Y-87571619D02*
X170582047Y-87571619D01*
X170582047Y-87571619D02*
X170469333Y-87524000D01*
X170469333Y-87524000D02*
X170415952Y-87476380D01*
X170415952Y-87476380D02*
X170368523Y-87381142D01*
X170368523Y-87381142D02*
X170333000Y-87190666D01*
X170333000Y-87190666D02*
X170362761Y-86952571D01*
X170362761Y-86952571D02*
X170445904Y-86762095D01*
X170445904Y-86762095D02*
X170517142Y-86666857D01*
X170517142Y-86666857D02*
X170582428Y-86619238D01*
X170582428Y-86619238D02*
X170707047Y-86571619D01*
X172012190Y-87047809D02*
X171596857Y-87047809D01*
X171531381Y-87571619D02*
X171656381Y-86571619D01*
X171656381Y-86571619D02*
X172249714Y-86571619D01*
X174029333Y-87524000D02*
X173904714Y-87571619D01*
X173904714Y-87571619D02*
X173667380Y-87571619D01*
X173667380Y-87571619D02*
X173554666Y-87524000D01*
X173554666Y-87524000D02*
X173507238Y-87428761D01*
X173507238Y-87428761D02*
X173554857Y-87047809D01*
X173554857Y-87047809D02*
X173626095Y-86952571D01*
X173626095Y-86952571D02*
X173750714Y-86904952D01*
X173750714Y-86904952D02*
X173988047Y-86904952D01*
X173988047Y-86904952D02*
X174100761Y-86952571D01*
X174100761Y-86952571D02*
X174148190Y-87047809D01*
X174148190Y-87047809D02*
X174136285Y-87143047D01*
X174136285Y-87143047D02*
X173531047Y-87238285D01*
X174616714Y-87571619D02*
X174700047Y-86904952D01*
X174688142Y-87000190D02*
X174753428Y-86952571D01*
X174753428Y-86952571D02*
X174878047Y-86904952D01*
X174878047Y-86904952D02*
X175056047Y-86904952D01*
X175056047Y-86904952D02*
X175168761Y-86952571D01*
X175168761Y-86952571D02*
X175216190Y-87047809D01*
X175216190Y-87047809D02*
X175150714Y-87571619D01*
X175216190Y-87047809D02*
X175287428Y-86952571D01*
X175287428Y-86952571D02*
X175412047Y-86904952D01*
X175412047Y-86904952D02*
X175590047Y-86904952D01*
X175590047Y-86904952D02*
X175702761Y-86952571D01*
X175702761Y-86952571D02*
X175750190Y-87047809D01*
X175750190Y-87047809D02*
X175684714Y-87571619D01*
X176895380Y-86904952D02*
X176812047Y-87571619D01*
X176361380Y-86904952D02*
X176295904Y-87428761D01*
X176295904Y-87428761D02*
X176343333Y-87524000D01*
X176343333Y-87524000D02*
X176456047Y-87571619D01*
X176456047Y-87571619D02*
X176634047Y-87571619D01*
X176634047Y-87571619D02*
X176758666Y-87524000D01*
X176758666Y-87524000D02*
X176823952Y-87476380D01*
X177583380Y-87571619D02*
X177470666Y-87524000D01*
X177470666Y-87524000D02*
X177423237Y-87428761D01*
X177423237Y-87428761D02*
X177530380Y-86571619D01*
X178972046Y-86904952D02*
X179185380Y-87571619D01*
X179185380Y-87571619D02*
X179565380Y-86904952D01*
X180010475Y-86666857D02*
X180075760Y-86619238D01*
X180075760Y-86619238D02*
X180200379Y-86571619D01*
X180200379Y-86571619D02*
X180497046Y-86571619D01*
X180497046Y-86571619D02*
X180609760Y-86619238D01*
X180609760Y-86619238D02*
X180663141Y-86666857D01*
X180663141Y-86666857D02*
X180710570Y-86762095D01*
X180710570Y-86762095D02*
X180698665Y-86857333D01*
X180698665Y-86857333D02*
X180621475Y-87000190D01*
X180621475Y-87000190D02*
X179838046Y-87571619D01*
X179838046Y-87571619D02*
X180609379Y-87571619D01*
D12*
X135149048Y-116271866D02*
X135910953Y-116271866D01*
X135530000Y-116652819D02*
X135530000Y-115890914D01*
D13*
X181743047Y-98493416D02*
X181936571Y-98493416D01*
X181936571Y-98493416D02*
X182033333Y-98541797D01*
X182033333Y-98541797D02*
X182130095Y-98638559D01*
X182130095Y-98638559D02*
X182178476Y-98832083D01*
X182178476Y-98832083D02*
X182178476Y-99170750D01*
X182178476Y-99170750D02*
X182130095Y-99364274D01*
X182130095Y-99364274D02*
X182033333Y-99461036D01*
X182033333Y-99461036D02*
X181936571Y-99509416D01*
X181936571Y-99509416D02*
X181743047Y-99509416D01*
X181743047Y-99509416D02*
X181646285Y-99461036D01*
X181646285Y-99461036D02*
X181549523Y-99364274D01*
X181549523Y-99364274D02*
X181501142Y-99170750D01*
X181501142Y-99170750D02*
X181501142Y-98832083D01*
X181501142Y-98832083D02*
X181549523Y-98638559D01*
X181549523Y-98638559D02*
X181646285Y-98541797D01*
X181646285Y-98541797D02*
X181743047Y-98493416D01*
X182613904Y-99509416D02*
X182613904Y-98493416D01*
X182613904Y-98493416D02*
X183194476Y-99509416D01*
X183194476Y-99509416D02*
X183194476Y-98493416D01*
D12*
%TO.C,C1*%
X156228144Y-113918999D02*
X156264430Y-113955285D01*
X156264430Y-113955285D02*
X156300715Y-114064142D01*
X156300715Y-114064142D02*
X156300715Y-114136714D01*
X156300715Y-114136714D02*
X156264430Y-114245571D01*
X156264430Y-114245571D02*
X156191858Y-114318142D01*
X156191858Y-114318142D02*
X156119287Y-114354428D01*
X156119287Y-114354428D02*
X155974144Y-114390714D01*
X155974144Y-114390714D02*
X155865287Y-114390714D01*
X155865287Y-114390714D02*
X155720144Y-114354428D01*
X155720144Y-114354428D02*
X155647572Y-114318142D01*
X155647572Y-114318142D02*
X155575001Y-114245571D01*
X155575001Y-114245571D02*
X155538715Y-114136714D01*
X155538715Y-114136714D02*
X155538715Y-114064142D01*
X155538715Y-114064142D02*
X155575001Y-113955285D01*
X155575001Y-113955285D02*
X155611287Y-113918999D01*
X156300715Y-113193285D02*
X156300715Y-113628714D01*
X156300715Y-113410999D02*
X155538715Y-113410999D01*
X155538715Y-113410999D02*
X155647572Y-113483571D01*
X155647572Y-113483571D02*
X155720144Y-113556142D01*
X155720144Y-113556142D02*
X155756430Y-113628714D01*
%TO.C,C2*%
X162151000Y-110000144D02*
X162114714Y-110036430D01*
X162114714Y-110036430D02*
X162005857Y-110072715D01*
X162005857Y-110072715D02*
X161933285Y-110072715D01*
X161933285Y-110072715D02*
X161824428Y-110036430D01*
X161824428Y-110036430D02*
X161751857Y-109963858D01*
X161751857Y-109963858D02*
X161715571Y-109891287D01*
X161715571Y-109891287D02*
X161679285Y-109746144D01*
X161679285Y-109746144D02*
X161679285Y-109637287D01*
X161679285Y-109637287D02*
X161715571Y-109492144D01*
X161715571Y-109492144D02*
X161751857Y-109419572D01*
X161751857Y-109419572D02*
X161824428Y-109347001D01*
X161824428Y-109347001D02*
X161933285Y-109310715D01*
X161933285Y-109310715D02*
X162005857Y-109310715D01*
X162005857Y-109310715D02*
X162114714Y-109347001D01*
X162114714Y-109347001D02*
X162151000Y-109383287D01*
X162441285Y-109383287D02*
X162477571Y-109347001D01*
X162477571Y-109347001D02*
X162550143Y-109310715D01*
X162550143Y-109310715D02*
X162731571Y-109310715D01*
X162731571Y-109310715D02*
X162804143Y-109347001D01*
X162804143Y-109347001D02*
X162840428Y-109383287D01*
X162840428Y-109383287D02*
X162876714Y-109455858D01*
X162876714Y-109455858D02*
X162876714Y-109528430D01*
X162876714Y-109528430D02*
X162840428Y-109637287D01*
X162840428Y-109637287D02*
X162405000Y-110072715D01*
X162405000Y-110072715D02*
X162876714Y-110072715D01*
%TO.C,C3*%
X159887311Y-98105259D02*
X159851025Y-98141545D01*
X159851025Y-98141545D02*
X159742168Y-98177830D01*
X159742168Y-98177830D02*
X159669596Y-98177830D01*
X159669596Y-98177830D02*
X159560739Y-98141545D01*
X159560739Y-98141545D02*
X159488168Y-98068973D01*
X159488168Y-98068973D02*
X159451882Y-97996402D01*
X159451882Y-97996402D02*
X159415596Y-97851259D01*
X159415596Y-97851259D02*
X159415596Y-97742402D01*
X159415596Y-97742402D02*
X159451882Y-97597259D01*
X159451882Y-97597259D02*
X159488168Y-97524687D01*
X159488168Y-97524687D02*
X159560739Y-97452116D01*
X159560739Y-97452116D02*
X159669596Y-97415830D01*
X159669596Y-97415830D02*
X159742168Y-97415830D01*
X159742168Y-97415830D02*
X159851025Y-97452116D01*
X159851025Y-97452116D02*
X159887311Y-97488402D01*
X160141311Y-97415830D02*
X160613025Y-97415830D01*
X160613025Y-97415830D02*
X160359025Y-97706116D01*
X160359025Y-97706116D02*
X160467882Y-97706116D01*
X160467882Y-97706116D02*
X160540454Y-97742402D01*
X160540454Y-97742402D02*
X160576739Y-97778687D01*
X160576739Y-97778687D02*
X160613025Y-97851259D01*
X160613025Y-97851259D02*
X160613025Y-98032687D01*
X160613025Y-98032687D02*
X160576739Y-98105259D01*
X160576739Y-98105259D02*
X160540454Y-98141545D01*
X160540454Y-98141545D02*
X160467882Y-98177830D01*
X160467882Y-98177830D02*
X160250168Y-98177830D01*
X160250168Y-98177830D02*
X160177596Y-98141545D01*
X160177596Y-98141545D02*
X160141311Y-98105259D01*
%TO.C,C4*%
X152164144Y-109092999D02*
X152200430Y-109129285D01*
X152200430Y-109129285D02*
X152236715Y-109238142D01*
X152236715Y-109238142D02*
X152236715Y-109310714D01*
X152236715Y-109310714D02*
X152200430Y-109419571D01*
X152200430Y-109419571D02*
X152127858Y-109492142D01*
X152127858Y-109492142D02*
X152055287Y-109528428D01*
X152055287Y-109528428D02*
X151910144Y-109564714D01*
X151910144Y-109564714D02*
X151801287Y-109564714D01*
X151801287Y-109564714D02*
X151656144Y-109528428D01*
X151656144Y-109528428D02*
X151583572Y-109492142D01*
X151583572Y-109492142D02*
X151511001Y-109419571D01*
X151511001Y-109419571D02*
X151474715Y-109310714D01*
X151474715Y-109310714D02*
X151474715Y-109238142D01*
X151474715Y-109238142D02*
X151511001Y-109129285D01*
X151511001Y-109129285D02*
X151547287Y-109092999D01*
X151728715Y-108439857D02*
X152236715Y-108439857D01*
X151438430Y-108621285D02*
X151982715Y-108802714D01*
X151982715Y-108802714D02*
X151982715Y-108330999D01*
%TO.C,C5*%
X154450144Y-113156999D02*
X154486430Y-113193285D01*
X154486430Y-113193285D02*
X154522715Y-113302142D01*
X154522715Y-113302142D02*
X154522715Y-113374714D01*
X154522715Y-113374714D02*
X154486430Y-113483571D01*
X154486430Y-113483571D02*
X154413858Y-113556142D01*
X154413858Y-113556142D02*
X154341287Y-113592428D01*
X154341287Y-113592428D02*
X154196144Y-113628714D01*
X154196144Y-113628714D02*
X154087287Y-113628714D01*
X154087287Y-113628714D02*
X153942144Y-113592428D01*
X153942144Y-113592428D02*
X153869572Y-113556142D01*
X153869572Y-113556142D02*
X153797001Y-113483571D01*
X153797001Y-113483571D02*
X153760715Y-113374714D01*
X153760715Y-113374714D02*
X153760715Y-113302142D01*
X153760715Y-113302142D02*
X153797001Y-113193285D01*
X153797001Y-113193285D02*
X153833287Y-113156999D01*
X153760715Y-112467571D02*
X153760715Y-112830428D01*
X153760715Y-112830428D02*
X154123572Y-112866714D01*
X154123572Y-112866714D02*
X154087287Y-112830428D01*
X154087287Y-112830428D02*
X154051001Y-112757857D01*
X154051001Y-112757857D02*
X154051001Y-112576428D01*
X154051001Y-112576428D02*
X154087287Y-112503857D01*
X154087287Y-112503857D02*
X154123572Y-112467571D01*
X154123572Y-112467571D02*
X154196144Y-112431285D01*
X154196144Y-112431285D02*
X154377572Y-112431285D01*
X154377572Y-112431285D02*
X154450144Y-112467571D01*
X154450144Y-112467571D02*
X154486430Y-112503857D01*
X154486430Y-112503857D02*
X154522715Y-112576428D01*
X154522715Y-112576428D02*
X154522715Y-112757857D01*
X154522715Y-112757857D02*
X154486430Y-112830428D01*
X154486430Y-112830428D02*
X154450144Y-112866714D01*
%TO.C,C6*%
X165877000Y-100602144D02*
X165840714Y-100638430D01*
X165840714Y-100638430D02*
X165731857Y-100674715D01*
X165731857Y-100674715D02*
X165659285Y-100674715D01*
X165659285Y-100674715D02*
X165550428Y-100638430D01*
X165550428Y-100638430D02*
X165477857Y-100565858D01*
X165477857Y-100565858D02*
X165441571Y-100493287D01*
X165441571Y-100493287D02*
X165405285Y-100348144D01*
X165405285Y-100348144D02*
X165405285Y-100239287D01*
X165405285Y-100239287D02*
X165441571Y-100094144D01*
X165441571Y-100094144D02*
X165477857Y-100021572D01*
X165477857Y-100021572D02*
X165550428Y-99949001D01*
X165550428Y-99949001D02*
X165659285Y-99912715D01*
X165659285Y-99912715D02*
X165731857Y-99912715D01*
X165731857Y-99912715D02*
X165840714Y-99949001D01*
X165840714Y-99949001D02*
X165877000Y-99985287D01*
X166530143Y-99912715D02*
X166385000Y-99912715D01*
X166385000Y-99912715D02*
X166312428Y-99949001D01*
X166312428Y-99949001D02*
X166276143Y-99985287D01*
X166276143Y-99985287D02*
X166203571Y-100094144D01*
X166203571Y-100094144D02*
X166167285Y-100239287D01*
X166167285Y-100239287D02*
X166167285Y-100529572D01*
X166167285Y-100529572D02*
X166203571Y-100602144D01*
X166203571Y-100602144D02*
X166239857Y-100638430D01*
X166239857Y-100638430D02*
X166312428Y-100674715D01*
X166312428Y-100674715D02*
X166457571Y-100674715D01*
X166457571Y-100674715D02*
X166530143Y-100638430D01*
X166530143Y-100638430D02*
X166566428Y-100602144D01*
X166566428Y-100602144D02*
X166602714Y-100529572D01*
X166602714Y-100529572D02*
X166602714Y-100348144D01*
X166602714Y-100348144D02*
X166566428Y-100275572D01*
X166566428Y-100275572D02*
X166530143Y-100239287D01*
X166530143Y-100239287D02*
X166457571Y-100203001D01*
X166457571Y-100203001D02*
X166312428Y-100203001D01*
X166312428Y-100203001D02*
X166239857Y-100239287D01*
X166239857Y-100239287D02*
X166203571Y-100275572D01*
X166203571Y-100275572D02*
X166167285Y-100348144D01*
%TO.C,C7*%
X152052144Y-113156999D02*
X152088430Y-113193285D01*
X152088430Y-113193285D02*
X152124715Y-113302142D01*
X152124715Y-113302142D02*
X152124715Y-113374714D01*
X152124715Y-113374714D02*
X152088430Y-113483571D01*
X152088430Y-113483571D02*
X152015858Y-113556142D01*
X152015858Y-113556142D02*
X151943287Y-113592428D01*
X151943287Y-113592428D02*
X151798144Y-113628714D01*
X151798144Y-113628714D02*
X151689287Y-113628714D01*
X151689287Y-113628714D02*
X151544144Y-113592428D01*
X151544144Y-113592428D02*
X151471572Y-113556142D01*
X151471572Y-113556142D02*
X151399001Y-113483571D01*
X151399001Y-113483571D02*
X151362715Y-113374714D01*
X151362715Y-113374714D02*
X151362715Y-113302142D01*
X151362715Y-113302142D02*
X151399001Y-113193285D01*
X151399001Y-113193285D02*
X151435287Y-113156999D01*
X151362715Y-112902999D02*
X151362715Y-112394999D01*
X151362715Y-112394999D02*
X152124715Y-112721571D01*
%TO.C,C10*%
X167150143Y-95000144D02*
X167113857Y-95036430D01*
X167113857Y-95036430D02*
X167005000Y-95072715D01*
X167005000Y-95072715D02*
X166932428Y-95072715D01*
X166932428Y-95072715D02*
X166823571Y-95036430D01*
X166823571Y-95036430D02*
X166751000Y-94963858D01*
X166751000Y-94963858D02*
X166714714Y-94891287D01*
X166714714Y-94891287D02*
X166678428Y-94746144D01*
X166678428Y-94746144D02*
X166678428Y-94637287D01*
X166678428Y-94637287D02*
X166714714Y-94492144D01*
X166714714Y-94492144D02*
X166751000Y-94419572D01*
X166751000Y-94419572D02*
X166823571Y-94347001D01*
X166823571Y-94347001D02*
X166932428Y-94310715D01*
X166932428Y-94310715D02*
X167005000Y-94310715D01*
X167005000Y-94310715D02*
X167113857Y-94347001D01*
X167113857Y-94347001D02*
X167150143Y-94383287D01*
X167875857Y-95072715D02*
X167440428Y-95072715D01*
X167658143Y-95072715D02*
X167658143Y-94310715D01*
X167658143Y-94310715D02*
X167585571Y-94419572D01*
X167585571Y-94419572D02*
X167513000Y-94492144D01*
X167513000Y-94492144D02*
X167440428Y-94528430D01*
X168347571Y-94310715D02*
X168420142Y-94310715D01*
X168420142Y-94310715D02*
X168492714Y-94347001D01*
X168492714Y-94347001D02*
X168529000Y-94383287D01*
X168529000Y-94383287D02*
X168565285Y-94455858D01*
X168565285Y-94455858D02*
X168601571Y-94601001D01*
X168601571Y-94601001D02*
X168601571Y-94782430D01*
X168601571Y-94782430D02*
X168565285Y-94927572D01*
X168565285Y-94927572D02*
X168529000Y-95000144D01*
X168529000Y-95000144D02*
X168492714Y-95036430D01*
X168492714Y-95036430D02*
X168420142Y-95072715D01*
X168420142Y-95072715D02*
X168347571Y-95072715D01*
X168347571Y-95072715D02*
X168275000Y-95036430D01*
X168275000Y-95036430D02*
X168238714Y-95000144D01*
X168238714Y-95000144D02*
X168202428Y-94927572D01*
X168202428Y-94927572D02*
X168166142Y-94782430D01*
X168166142Y-94782430D02*
X168166142Y-94601001D01*
X168166142Y-94601001D02*
X168202428Y-94455858D01*
X168202428Y-94455858D02*
X168238714Y-94383287D01*
X168238714Y-94383287D02*
X168275000Y-94347001D01*
X168275000Y-94347001D02*
X168347571Y-94310715D01*
%TO.C,C11*%
X167404143Y-108208144D02*
X167367857Y-108244430D01*
X167367857Y-108244430D02*
X167259000Y-108280715D01*
X167259000Y-108280715D02*
X167186428Y-108280715D01*
X167186428Y-108280715D02*
X167077571Y-108244430D01*
X167077571Y-108244430D02*
X167005000Y-108171858D01*
X167005000Y-108171858D02*
X166968714Y-108099287D01*
X166968714Y-108099287D02*
X166932428Y-107954144D01*
X166932428Y-107954144D02*
X166932428Y-107845287D01*
X166932428Y-107845287D02*
X166968714Y-107700144D01*
X166968714Y-107700144D02*
X167005000Y-107627572D01*
X167005000Y-107627572D02*
X167077571Y-107555001D01*
X167077571Y-107555001D02*
X167186428Y-107518715D01*
X167186428Y-107518715D02*
X167259000Y-107518715D01*
X167259000Y-107518715D02*
X167367857Y-107555001D01*
X167367857Y-107555001D02*
X167404143Y-107591287D01*
X168129857Y-108280715D02*
X167694428Y-108280715D01*
X167912143Y-108280715D02*
X167912143Y-107518715D01*
X167912143Y-107518715D02*
X167839571Y-107627572D01*
X167839571Y-107627572D02*
X167767000Y-107700144D01*
X167767000Y-107700144D02*
X167694428Y-107736430D01*
X168855571Y-108280715D02*
X168420142Y-108280715D01*
X168637857Y-108280715D02*
X168637857Y-107518715D01*
X168637857Y-107518715D02*
X168565285Y-107627572D01*
X168565285Y-107627572D02*
X168492714Y-107700144D01*
X168492714Y-107700144D02*
X168420142Y-107736430D01*
%TO.C,D1*%
X167585571Y-115646715D02*
X167585571Y-114884715D01*
X167585571Y-114884715D02*
X167767000Y-114884715D01*
X167767000Y-114884715D02*
X167875857Y-114921001D01*
X167875857Y-114921001D02*
X167948428Y-114993572D01*
X167948428Y-114993572D02*
X167984714Y-115066144D01*
X167984714Y-115066144D02*
X168021000Y-115211287D01*
X168021000Y-115211287D02*
X168021000Y-115320144D01*
X168021000Y-115320144D02*
X167984714Y-115465287D01*
X167984714Y-115465287D02*
X167948428Y-115537858D01*
X167948428Y-115537858D02*
X167875857Y-115610430D01*
X167875857Y-115610430D02*
X167767000Y-115646715D01*
X167767000Y-115646715D02*
X167585571Y-115646715D01*
X168746714Y-115646715D02*
X168311285Y-115646715D01*
X168529000Y-115646715D02*
X168529000Y-114884715D01*
X168529000Y-114884715D02*
X168456428Y-114993572D01*
X168456428Y-114993572D02*
X168383857Y-115066144D01*
X168383857Y-115066144D02*
X168311285Y-115102430D01*
%TO.C,D2*%
X175205571Y-104470715D02*
X175205571Y-103708715D01*
X175205571Y-103708715D02*
X175387000Y-103708715D01*
X175387000Y-103708715D02*
X175495857Y-103745001D01*
X175495857Y-103745001D02*
X175568428Y-103817572D01*
X175568428Y-103817572D02*
X175604714Y-103890144D01*
X175604714Y-103890144D02*
X175641000Y-104035287D01*
X175641000Y-104035287D02*
X175641000Y-104144144D01*
X175641000Y-104144144D02*
X175604714Y-104289287D01*
X175604714Y-104289287D02*
X175568428Y-104361858D01*
X175568428Y-104361858D02*
X175495857Y-104434430D01*
X175495857Y-104434430D02*
X175387000Y-104470715D01*
X175387000Y-104470715D02*
X175205571Y-104470715D01*
X175931285Y-103781287D02*
X175967571Y-103745001D01*
X175967571Y-103745001D02*
X176040143Y-103708715D01*
X176040143Y-103708715D02*
X176221571Y-103708715D01*
X176221571Y-103708715D02*
X176294143Y-103745001D01*
X176294143Y-103745001D02*
X176330428Y-103781287D01*
X176330428Y-103781287D02*
X176366714Y-103853858D01*
X176366714Y-103853858D02*
X176366714Y-103926430D01*
X176366714Y-103926430D02*
X176330428Y-104035287D01*
X176330428Y-104035287D02*
X175895000Y-104470715D01*
X175895000Y-104470715D02*
X176366714Y-104470715D01*
%TO.C,FB1*%
X173609000Y-106879572D02*
X173355000Y-106879572D01*
X173355000Y-107278715D02*
X173355000Y-106516715D01*
X173355000Y-106516715D02*
X173717857Y-106516715D01*
X174262143Y-106879572D02*
X174371000Y-106915858D01*
X174371000Y-106915858D02*
X174407286Y-106952144D01*
X174407286Y-106952144D02*
X174443572Y-107024715D01*
X174443572Y-107024715D02*
X174443572Y-107133572D01*
X174443572Y-107133572D02*
X174407286Y-107206144D01*
X174407286Y-107206144D02*
X174371000Y-107242430D01*
X174371000Y-107242430D02*
X174298429Y-107278715D01*
X174298429Y-107278715D02*
X174008143Y-107278715D01*
X174008143Y-107278715D02*
X174008143Y-106516715D01*
X174008143Y-106516715D02*
X174262143Y-106516715D01*
X174262143Y-106516715D02*
X174334715Y-106553001D01*
X174334715Y-106553001D02*
X174371000Y-106589287D01*
X174371000Y-106589287D02*
X174407286Y-106661858D01*
X174407286Y-106661858D02*
X174407286Y-106734430D01*
X174407286Y-106734430D02*
X174371000Y-106807001D01*
X174371000Y-106807001D02*
X174334715Y-106843287D01*
X174334715Y-106843287D02*
X174262143Y-106879572D01*
X174262143Y-106879572D02*
X174008143Y-106879572D01*
X175169286Y-107278715D02*
X174733857Y-107278715D01*
X174951572Y-107278715D02*
X174951572Y-106516715D01*
X174951572Y-106516715D02*
X174879000Y-106625572D01*
X174879000Y-106625572D02*
X174806429Y-106698144D01*
X174806429Y-106698144D02*
X174733857Y-106734430D01*
%TO.C,J2*%
X137080666Y-115532819D02*
X137080666Y-116247104D01*
X137080666Y-116247104D02*
X137033047Y-116389961D01*
X137033047Y-116389961D02*
X136937809Y-116485200D01*
X136937809Y-116485200D02*
X136794952Y-116532819D01*
X136794952Y-116532819D02*
X136699714Y-116532819D01*
X137509238Y-115628057D02*
X137556857Y-115580438D01*
X137556857Y-115580438D02*
X137652095Y-115532819D01*
X137652095Y-115532819D02*
X137890190Y-115532819D01*
X137890190Y-115532819D02*
X137985428Y-115580438D01*
X137985428Y-115580438D02*
X138033047Y-115628057D01*
X138033047Y-115628057D02*
X138080666Y-115723295D01*
X138080666Y-115723295D02*
X138080666Y-115818533D01*
X138080666Y-115818533D02*
X138033047Y-115961390D01*
X138033047Y-115961390D02*
X137461619Y-116532819D01*
X137461619Y-116532819D02*
X138080666Y-116532819D01*
%TO.C,JP1*%
X162250666Y-94927009D02*
X162393523Y-94974628D01*
X162393523Y-94974628D02*
X162441142Y-95022247D01*
X162441142Y-95022247D02*
X162488761Y-95117485D01*
X162488761Y-95117485D02*
X162488761Y-95260342D01*
X162488761Y-95260342D02*
X162441142Y-95355580D01*
X162441142Y-95355580D02*
X162393523Y-95403200D01*
X162393523Y-95403200D02*
X162298285Y-95450819D01*
X162298285Y-95450819D02*
X161917333Y-95450819D01*
X161917333Y-95450819D02*
X161917333Y-94450819D01*
X161917333Y-94450819D02*
X162250666Y-94450819D01*
X162250666Y-94450819D02*
X162345904Y-94498438D01*
X162345904Y-94498438D02*
X162393523Y-94546057D01*
X162393523Y-94546057D02*
X162441142Y-94641295D01*
X162441142Y-94641295D02*
X162441142Y-94736533D01*
X162441142Y-94736533D02*
X162393523Y-94831771D01*
X162393523Y-94831771D02*
X162345904Y-94879390D01*
X162345904Y-94879390D02*
X162250666Y-94927009D01*
X162250666Y-94927009D02*
X161917333Y-94927009D01*
X163107809Y-94450819D02*
X163298285Y-94450819D01*
X163298285Y-94450819D02*
X163393523Y-94498438D01*
X163393523Y-94498438D02*
X163488761Y-94593676D01*
X163488761Y-94593676D02*
X163536380Y-94784152D01*
X163536380Y-94784152D02*
X163536380Y-95117485D01*
X163536380Y-95117485D02*
X163488761Y-95307961D01*
X163488761Y-95307961D02*
X163393523Y-95403200D01*
X163393523Y-95403200D02*
X163298285Y-95450819D01*
X163298285Y-95450819D02*
X163107809Y-95450819D01*
X163107809Y-95450819D02*
X163012571Y-95403200D01*
X163012571Y-95403200D02*
X162917333Y-95307961D01*
X162917333Y-95307961D02*
X162869714Y-95117485D01*
X162869714Y-95117485D02*
X162869714Y-94784152D01*
X162869714Y-94784152D02*
X162917333Y-94593676D01*
X162917333Y-94593676D02*
X163012571Y-94498438D01*
X163012571Y-94498438D02*
X163107809Y-94450819D01*
X164155428Y-94450819D02*
X164345904Y-94450819D01*
X164345904Y-94450819D02*
X164441142Y-94498438D01*
X164441142Y-94498438D02*
X164536380Y-94593676D01*
X164536380Y-94593676D02*
X164583999Y-94784152D01*
X164583999Y-94784152D02*
X164583999Y-95117485D01*
X164583999Y-95117485D02*
X164536380Y-95307961D01*
X164536380Y-95307961D02*
X164441142Y-95403200D01*
X164441142Y-95403200D02*
X164345904Y-95450819D01*
X164345904Y-95450819D02*
X164155428Y-95450819D01*
X164155428Y-95450819D02*
X164060190Y-95403200D01*
X164060190Y-95403200D02*
X163964952Y-95307961D01*
X163964952Y-95307961D02*
X163917333Y-95117485D01*
X163917333Y-95117485D02*
X163917333Y-94784152D01*
X163917333Y-94784152D02*
X163964952Y-94593676D01*
X163964952Y-94593676D02*
X164060190Y-94498438D01*
X164060190Y-94498438D02*
X164155428Y-94450819D01*
X164869714Y-94450819D02*
X165441142Y-94450819D01*
X165155428Y-95450819D02*
X165155428Y-94450819D01*
X165964952Y-94450819D02*
X166060190Y-94450819D01*
X166060190Y-94450819D02*
X166155428Y-94498438D01*
X166155428Y-94498438D02*
X166203047Y-94546057D01*
X166203047Y-94546057D02*
X166250666Y-94641295D01*
X166250666Y-94641295D02*
X166298285Y-94831771D01*
X166298285Y-94831771D02*
X166298285Y-95069866D01*
X166298285Y-95069866D02*
X166250666Y-95260342D01*
X166250666Y-95260342D02*
X166203047Y-95355580D01*
X166203047Y-95355580D02*
X166155428Y-95403200D01*
X166155428Y-95403200D02*
X166060190Y-95450819D01*
X166060190Y-95450819D02*
X165964952Y-95450819D01*
X165964952Y-95450819D02*
X165869714Y-95403200D01*
X165869714Y-95403200D02*
X165822095Y-95355580D01*
X165822095Y-95355580D02*
X165774476Y-95260342D01*
X165774476Y-95260342D02*
X165726857Y-95069866D01*
X165726857Y-95069866D02*
X165726857Y-94831771D01*
X165726857Y-94831771D02*
X165774476Y-94641295D01*
X165774476Y-94641295D02*
X165822095Y-94546057D01*
X165822095Y-94546057D02*
X165869714Y-94498438D01*
X165869714Y-94498438D02*
X165964952Y-94450819D01*
%TO.C,L1*%
X154480243Y-98160594D02*
X154117386Y-98160594D01*
X154117386Y-98160594D02*
X154117386Y-97398594D01*
X155133386Y-98160594D02*
X154697957Y-98160594D01*
X154915672Y-98160594D02*
X154915672Y-97398594D01*
X154915672Y-97398594D02*
X154843100Y-97507451D01*
X154843100Y-97507451D02*
X154770529Y-97580023D01*
X154770529Y-97580023D02*
X154697957Y-97616309D01*
%TO.C,R1*%
X160364715Y-112902999D02*
X160001858Y-113156999D01*
X160364715Y-113338428D02*
X159602715Y-113338428D01*
X159602715Y-113338428D02*
X159602715Y-113048142D01*
X159602715Y-113048142D02*
X159639001Y-112975571D01*
X159639001Y-112975571D02*
X159675287Y-112939285D01*
X159675287Y-112939285D02*
X159747858Y-112902999D01*
X159747858Y-112902999D02*
X159856715Y-112902999D01*
X159856715Y-112902999D02*
X159929287Y-112939285D01*
X159929287Y-112939285D02*
X159965572Y-112975571D01*
X159965572Y-112975571D02*
X160001858Y-113048142D01*
X160001858Y-113048142D02*
X160001858Y-113338428D01*
X160364715Y-112177285D02*
X160364715Y-112612714D01*
X160364715Y-112394999D02*
X159602715Y-112394999D01*
X159602715Y-112394999D02*
X159711572Y-112467571D01*
X159711572Y-112467571D02*
X159784144Y-112540142D01*
X159784144Y-112540142D02*
X159820430Y-112612714D01*
%TO.C,R2*%
X141062715Y-108838999D02*
X140699858Y-109092999D01*
X141062715Y-109274428D02*
X140300715Y-109274428D01*
X140300715Y-109274428D02*
X140300715Y-108984142D01*
X140300715Y-108984142D02*
X140337001Y-108911571D01*
X140337001Y-108911571D02*
X140373287Y-108875285D01*
X140373287Y-108875285D02*
X140445858Y-108838999D01*
X140445858Y-108838999D02*
X140554715Y-108838999D01*
X140554715Y-108838999D02*
X140627287Y-108875285D01*
X140627287Y-108875285D02*
X140663572Y-108911571D01*
X140663572Y-108911571D02*
X140699858Y-108984142D01*
X140699858Y-108984142D02*
X140699858Y-109274428D01*
X140373287Y-108548714D02*
X140337001Y-108512428D01*
X140337001Y-108512428D02*
X140300715Y-108439857D01*
X140300715Y-108439857D02*
X140300715Y-108258428D01*
X140300715Y-108258428D02*
X140337001Y-108185857D01*
X140337001Y-108185857D02*
X140373287Y-108149571D01*
X140373287Y-108149571D02*
X140445858Y-108113285D01*
X140445858Y-108113285D02*
X140518430Y-108113285D01*
X140518430Y-108113285D02*
X140627287Y-108149571D01*
X140627287Y-108149571D02*
X141062715Y-108584999D01*
X141062715Y-108584999D02*
X141062715Y-108113285D01*
%TO.C,R3*%
X168021000Y-113106715D02*
X167767000Y-112743858D01*
X167585571Y-113106715D02*
X167585571Y-112344715D01*
X167585571Y-112344715D02*
X167875857Y-112344715D01*
X167875857Y-112344715D02*
X167948428Y-112381001D01*
X167948428Y-112381001D02*
X167984714Y-112417287D01*
X167984714Y-112417287D02*
X168021000Y-112489858D01*
X168021000Y-112489858D02*
X168021000Y-112598715D01*
X168021000Y-112598715D02*
X167984714Y-112671287D01*
X167984714Y-112671287D02*
X167948428Y-112707572D01*
X167948428Y-112707572D02*
X167875857Y-112743858D01*
X167875857Y-112743858D02*
X167585571Y-112743858D01*
X168275000Y-112344715D02*
X168746714Y-112344715D01*
X168746714Y-112344715D02*
X168492714Y-112635001D01*
X168492714Y-112635001D02*
X168601571Y-112635001D01*
X168601571Y-112635001D02*
X168674143Y-112671287D01*
X168674143Y-112671287D02*
X168710428Y-112707572D01*
X168710428Y-112707572D02*
X168746714Y-112780144D01*
X168746714Y-112780144D02*
X168746714Y-112961572D01*
X168746714Y-112961572D02*
X168710428Y-113034144D01*
X168710428Y-113034144D02*
X168674143Y-113070430D01*
X168674143Y-113070430D02*
X168601571Y-113106715D01*
X168601571Y-113106715D02*
X168383857Y-113106715D01*
X168383857Y-113106715D02*
X168311285Y-113070430D01*
X168311285Y-113070430D02*
X168275000Y-113034144D01*
%TO.C,U1*%
X146739428Y-105246715D02*
X146739428Y-105863572D01*
X146739428Y-105863572D02*
X146775714Y-105936144D01*
X146775714Y-105936144D02*
X146812000Y-105972430D01*
X146812000Y-105972430D02*
X146884571Y-106008715D01*
X146884571Y-106008715D02*
X147029714Y-106008715D01*
X147029714Y-106008715D02*
X147102285Y-105972430D01*
X147102285Y-105972430D02*
X147138571Y-105936144D01*
X147138571Y-105936144D02*
X147174857Y-105863572D01*
X147174857Y-105863572D02*
X147174857Y-105246715D01*
X147936857Y-106008715D02*
X147501428Y-106008715D01*
X147719143Y-106008715D02*
X147719143Y-105246715D01*
X147719143Y-105246715D02*
X147646571Y-105355572D01*
X147646571Y-105355572D02*
X147574000Y-105428144D01*
X147574000Y-105428144D02*
X147501428Y-105464430D01*
%TO.C,Y1*%
X161943143Y-101327858D02*
X161943143Y-101690715D01*
X161689143Y-100928715D02*
X161943143Y-101327858D01*
X161943143Y-101327858D02*
X162197143Y-100928715D01*
X162850286Y-101690715D02*
X162414857Y-101690715D01*
X162632572Y-101690715D02*
X162632572Y-100928715D01*
X162632572Y-100928715D02*
X162560000Y-101037572D01*
X162560000Y-101037572D02*
X162487429Y-101110144D01*
X162487429Y-101110144D02*
X162414857Y-101146430D01*
%TO.C,J1*%
X172880666Y-119596819D02*
X172880666Y-120311104D01*
X172880666Y-120311104D02*
X172833047Y-120453961D01*
X172833047Y-120453961D02*
X172737809Y-120549200D01*
X172737809Y-120549200D02*
X172594952Y-120596819D01*
X172594952Y-120596819D02*
X172499714Y-120596819D01*
X173880666Y-120596819D02*
X173309238Y-120596819D01*
X173594952Y-120596819D02*
X173594952Y-119596819D01*
X173594952Y-119596819D02*
X173499714Y-119739676D01*
X173499714Y-119739676D02*
X173404476Y-119834914D01*
X173404476Y-119834914D02*
X173309238Y-119882533D01*
%TO.C,R4*%
X158586715Y-112902999D02*
X158223858Y-113156999D01*
X158586715Y-113338428D02*
X157824715Y-113338428D01*
X157824715Y-113338428D02*
X157824715Y-113048142D01*
X157824715Y-113048142D02*
X157861001Y-112975571D01*
X157861001Y-112975571D02*
X157897287Y-112939285D01*
X157897287Y-112939285D02*
X157969858Y-112902999D01*
X157969858Y-112902999D02*
X158078715Y-112902999D01*
X158078715Y-112902999D02*
X158151287Y-112939285D01*
X158151287Y-112939285D02*
X158187572Y-112975571D01*
X158187572Y-112975571D02*
X158223858Y-113048142D01*
X158223858Y-113048142D02*
X158223858Y-113338428D01*
X158078715Y-112249857D02*
X158586715Y-112249857D01*
X157788430Y-112431285D02*
X158332715Y-112612714D01*
X158332715Y-112612714D02*
X158332715Y-112140999D01*
%TO.C,J3*%
X183054666Y-109436819D02*
X183054666Y-110151104D01*
X183054666Y-110151104D02*
X183007047Y-110293961D01*
X183007047Y-110293961D02*
X182911809Y-110389200D01*
X182911809Y-110389200D02*
X182768952Y-110436819D01*
X182768952Y-110436819D02*
X182673714Y-110436819D01*
X183435619Y-109436819D02*
X184054666Y-109436819D01*
X184054666Y-109436819D02*
X183721333Y-109817771D01*
X183721333Y-109817771D02*
X183864190Y-109817771D01*
X183864190Y-109817771D02*
X183959428Y-109865390D01*
X183959428Y-109865390D02*
X184007047Y-109913009D01*
X184007047Y-109913009D02*
X184054666Y-110008247D01*
X184054666Y-110008247D02*
X184054666Y-110246342D01*
X184054666Y-110246342D02*
X184007047Y-110341580D01*
X184007047Y-110341580D02*
X183959428Y-110389200D01*
X183959428Y-110389200D02*
X183864190Y-110436819D01*
X183864190Y-110436819D02*
X183578476Y-110436819D01*
X183578476Y-110436819D02*
X183483238Y-110389200D01*
X183483238Y-110389200D02*
X183435619Y-110341580D01*
%TO.C,R16*%
X173500143Y-118300715D02*
X173246143Y-117937858D01*
X173064714Y-118300715D02*
X173064714Y-117538715D01*
X173064714Y-117538715D02*
X173355000Y-117538715D01*
X173355000Y-117538715D02*
X173427571Y-117575001D01*
X173427571Y-117575001D02*
X173463857Y-117611287D01*
X173463857Y-117611287D02*
X173500143Y-117683858D01*
X173500143Y-117683858D02*
X173500143Y-117792715D01*
X173500143Y-117792715D02*
X173463857Y-117865287D01*
X173463857Y-117865287D02*
X173427571Y-117901572D01*
X173427571Y-117901572D02*
X173355000Y-117937858D01*
X173355000Y-117937858D02*
X173064714Y-117937858D01*
X174225857Y-118300715D02*
X173790428Y-118300715D01*
X174008143Y-118300715D02*
X174008143Y-117538715D01*
X174008143Y-117538715D02*
X173935571Y-117647572D01*
X173935571Y-117647572D02*
X173863000Y-117720144D01*
X173863000Y-117720144D02*
X173790428Y-117756430D01*
X174879000Y-117538715D02*
X174733857Y-117538715D01*
X174733857Y-117538715D02*
X174661285Y-117575001D01*
X174661285Y-117575001D02*
X174625000Y-117611287D01*
X174625000Y-117611287D02*
X174552428Y-117720144D01*
X174552428Y-117720144D02*
X174516142Y-117865287D01*
X174516142Y-117865287D02*
X174516142Y-118155572D01*
X174516142Y-118155572D02*
X174552428Y-118228144D01*
X174552428Y-118228144D02*
X174588714Y-118264430D01*
X174588714Y-118264430D02*
X174661285Y-118300715D01*
X174661285Y-118300715D02*
X174806428Y-118300715D01*
X174806428Y-118300715D02*
X174879000Y-118264430D01*
X174879000Y-118264430D02*
X174915285Y-118228144D01*
X174915285Y-118228144D02*
X174951571Y-118155572D01*
X174951571Y-118155572D02*
X174951571Y-117974144D01*
X174951571Y-117974144D02*
X174915285Y-117901572D01*
X174915285Y-117901572D02*
X174879000Y-117865287D01*
X174879000Y-117865287D02*
X174806428Y-117829001D01*
X174806428Y-117829001D02*
X174661285Y-117829001D01*
X174661285Y-117829001D02*
X174588714Y-117865287D01*
X174588714Y-117865287D02*
X174552428Y-117901572D01*
X174552428Y-117901572D02*
X174516142Y-117974144D01*
%TO.C,JP2*%
X166298666Y-110960819D02*
X166298666Y-111675104D01*
X166298666Y-111675104D02*
X166251047Y-111817961D01*
X166251047Y-111817961D02*
X166155809Y-111913200D01*
X166155809Y-111913200D02*
X166012952Y-111960819D01*
X166012952Y-111960819D02*
X165917714Y-111960819D01*
X166774857Y-111960819D02*
X166774857Y-110960819D01*
X166774857Y-110960819D02*
X167155809Y-110960819D01*
X167155809Y-110960819D02*
X167251047Y-111008438D01*
X167251047Y-111008438D02*
X167298666Y-111056057D01*
X167298666Y-111056057D02*
X167346285Y-111151295D01*
X167346285Y-111151295D02*
X167346285Y-111294152D01*
X167346285Y-111294152D02*
X167298666Y-111389390D01*
X167298666Y-111389390D02*
X167251047Y-111437009D01*
X167251047Y-111437009D02*
X167155809Y-111484628D01*
X167155809Y-111484628D02*
X166774857Y-111484628D01*
X167727238Y-111056057D02*
X167774857Y-111008438D01*
X167774857Y-111008438D02*
X167870095Y-110960819D01*
X167870095Y-110960819D02*
X168108190Y-110960819D01*
X168108190Y-110960819D02*
X168203428Y-111008438D01*
X168203428Y-111008438D02*
X168251047Y-111056057D01*
X168251047Y-111056057D02*
X168298666Y-111151295D01*
X168298666Y-111151295D02*
X168298666Y-111246533D01*
X168298666Y-111246533D02*
X168251047Y-111389390D01*
X168251047Y-111389390D02*
X167679619Y-111960819D01*
X167679619Y-111960819D02*
X168298666Y-111960819D01*
%TO.C,R7*%
X167894500Y-100419715D02*
X167640500Y-100056858D01*
X167459071Y-100419715D02*
X167459071Y-99657715D01*
X167459071Y-99657715D02*
X167749357Y-99657715D01*
X167749357Y-99657715D02*
X167821928Y-99694001D01*
X167821928Y-99694001D02*
X167858214Y-99730287D01*
X167858214Y-99730287D02*
X167894500Y-99802858D01*
X167894500Y-99802858D02*
X167894500Y-99911715D01*
X167894500Y-99911715D02*
X167858214Y-99984287D01*
X167858214Y-99984287D02*
X167821928Y-100020572D01*
X167821928Y-100020572D02*
X167749357Y-100056858D01*
X167749357Y-100056858D02*
X167459071Y-100056858D01*
X168148500Y-99657715D02*
X168656500Y-99657715D01*
X168656500Y-99657715D02*
X168329928Y-100419715D01*
%TO.C,J5*%
X167306666Y-89624819D02*
X167306666Y-90339104D01*
X167306666Y-90339104D02*
X167259047Y-90481961D01*
X167259047Y-90481961D02*
X167163809Y-90577200D01*
X167163809Y-90577200D02*
X167020952Y-90624819D01*
X167020952Y-90624819D02*
X166925714Y-90624819D01*
X168259047Y-89624819D02*
X167782857Y-89624819D01*
X167782857Y-89624819D02*
X167735238Y-90101009D01*
X167735238Y-90101009D02*
X167782857Y-90053390D01*
X167782857Y-90053390D02*
X167878095Y-90005771D01*
X167878095Y-90005771D02*
X168116190Y-90005771D01*
X168116190Y-90005771D02*
X168211428Y-90053390D01*
X168211428Y-90053390D02*
X168259047Y-90101009D01*
X168259047Y-90101009D02*
X168306666Y-90196247D01*
X168306666Y-90196247D02*
X168306666Y-90434342D01*
X168306666Y-90434342D02*
X168259047Y-90529580D01*
X168259047Y-90529580D02*
X168211428Y-90577200D01*
X168211428Y-90577200D02*
X168116190Y-90624819D01*
X168116190Y-90624819D02*
X167878095Y-90624819D01*
X167878095Y-90624819D02*
X167782857Y-90577200D01*
X167782857Y-90577200D02*
X167735238Y-90529580D01*
%TO.C,C13*%
X158662143Y-89560144D02*
X158625857Y-89596430D01*
X158625857Y-89596430D02*
X158517000Y-89632715D01*
X158517000Y-89632715D02*
X158444428Y-89632715D01*
X158444428Y-89632715D02*
X158335571Y-89596430D01*
X158335571Y-89596430D02*
X158263000Y-89523858D01*
X158263000Y-89523858D02*
X158226714Y-89451287D01*
X158226714Y-89451287D02*
X158190428Y-89306144D01*
X158190428Y-89306144D02*
X158190428Y-89197287D01*
X158190428Y-89197287D02*
X158226714Y-89052144D01*
X158226714Y-89052144D02*
X158263000Y-88979572D01*
X158263000Y-88979572D02*
X158335571Y-88907001D01*
X158335571Y-88907001D02*
X158444428Y-88870715D01*
X158444428Y-88870715D02*
X158517000Y-88870715D01*
X158517000Y-88870715D02*
X158625857Y-88907001D01*
X158625857Y-88907001D02*
X158662143Y-88943287D01*
X159387857Y-89632715D02*
X158952428Y-89632715D01*
X159170143Y-89632715D02*
X159170143Y-88870715D01*
X159170143Y-88870715D02*
X159097571Y-88979572D01*
X159097571Y-88979572D02*
X159025000Y-89052144D01*
X159025000Y-89052144D02*
X158952428Y-89088430D01*
X159641857Y-88870715D02*
X160113571Y-88870715D01*
X160113571Y-88870715D02*
X159859571Y-89161001D01*
X159859571Y-89161001D02*
X159968428Y-89161001D01*
X159968428Y-89161001D02*
X160041000Y-89197287D01*
X160041000Y-89197287D02*
X160077285Y-89233572D01*
X160077285Y-89233572D02*
X160113571Y-89306144D01*
X160113571Y-89306144D02*
X160113571Y-89487572D01*
X160113571Y-89487572D02*
X160077285Y-89560144D01*
X160077285Y-89560144D02*
X160041000Y-89596430D01*
X160041000Y-89596430D02*
X159968428Y-89632715D01*
X159968428Y-89632715D02*
X159750714Y-89632715D01*
X159750714Y-89632715D02*
X159678142Y-89596430D01*
X159678142Y-89596430D02*
X159641857Y-89560144D01*
%TO.C,R9*%
X155187000Y-93696715D02*
X154933000Y-93333858D01*
X154751571Y-93696715D02*
X154751571Y-92934715D01*
X154751571Y-92934715D02*
X155041857Y-92934715D01*
X155041857Y-92934715D02*
X155114428Y-92971001D01*
X155114428Y-92971001D02*
X155150714Y-93007287D01*
X155150714Y-93007287D02*
X155187000Y-93079858D01*
X155187000Y-93079858D02*
X155187000Y-93188715D01*
X155187000Y-93188715D02*
X155150714Y-93261287D01*
X155150714Y-93261287D02*
X155114428Y-93297572D01*
X155114428Y-93297572D02*
X155041857Y-93333858D01*
X155041857Y-93333858D02*
X154751571Y-93333858D01*
X155549857Y-93696715D02*
X155695000Y-93696715D01*
X155695000Y-93696715D02*
X155767571Y-93660430D01*
X155767571Y-93660430D02*
X155803857Y-93624144D01*
X155803857Y-93624144D02*
X155876428Y-93515287D01*
X155876428Y-93515287D02*
X155912714Y-93370144D01*
X155912714Y-93370144D02*
X155912714Y-93079858D01*
X155912714Y-93079858D02*
X155876428Y-93007287D01*
X155876428Y-93007287D02*
X155840143Y-92971001D01*
X155840143Y-92971001D02*
X155767571Y-92934715D01*
X155767571Y-92934715D02*
X155622428Y-92934715D01*
X155622428Y-92934715D02*
X155549857Y-92971001D01*
X155549857Y-92971001D02*
X155513571Y-93007287D01*
X155513571Y-93007287D02*
X155477285Y-93079858D01*
X155477285Y-93079858D02*
X155477285Y-93261287D01*
X155477285Y-93261287D02*
X155513571Y-93333858D01*
X155513571Y-93333858D02*
X155549857Y-93370144D01*
X155549857Y-93370144D02*
X155622428Y-93406430D01*
X155622428Y-93406430D02*
X155767571Y-93406430D01*
X155767571Y-93406430D02*
X155840143Y-93370144D01*
X155840143Y-93370144D02*
X155876428Y-93333858D01*
X155876428Y-93333858D02*
X155912714Y-93261287D01*
%TO.C,C8*%
X158093000Y-98076144D02*
X158056714Y-98112430D01*
X158056714Y-98112430D02*
X157947857Y-98148715D01*
X157947857Y-98148715D02*
X157875285Y-98148715D01*
X157875285Y-98148715D02*
X157766428Y-98112430D01*
X157766428Y-98112430D02*
X157693857Y-98039858D01*
X157693857Y-98039858D02*
X157657571Y-97967287D01*
X157657571Y-97967287D02*
X157621285Y-97822144D01*
X157621285Y-97822144D02*
X157621285Y-97713287D01*
X157621285Y-97713287D02*
X157657571Y-97568144D01*
X157657571Y-97568144D02*
X157693857Y-97495572D01*
X157693857Y-97495572D02*
X157766428Y-97423001D01*
X157766428Y-97423001D02*
X157875285Y-97386715D01*
X157875285Y-97386715D02*
X157947857Y-97386715D01*
X157947857Y-97386715D02*
X158056714Y-97423001D01*
X158056714Y-97423001D02*
X158093000Y-97459287D01*
X158528428Y-97713287D02*
X158455857Y-97677001D01*
X158455857Y-97677001D02*
X158419571Y-97640715D01*
X158419571Y-97640715D02*
X158383285Y-97568144D01*
X158383285Y-97568144D02*
X158383285Y-97531858D01*
X158383285Y-97531858D02*
X158419571Y-97459287D01*
X158419571Y-97459287D02*
X158455857Y-97423001D01*
X158455857Y-97423001D02*
X158528428Y-97386715D01*
X158528428Y-97386715D02*
X158673571Y-97386715D01*
X158673571Y-97386715D02*
X158746143Y-97423001D01*
X158746143Y-97423001D02*
X158782428Y-97459287D01*
X158782428Y-97459287D02*
X158818714Y-97531858D01*
X158818714Y-97531858D02*
X158818714Y-97568144D01*
X158818714Y-97568144D02*
X158782428Y-97640715D01*
X158782428Y-97640715D02*
X158746143Y-97677001D01*
X158746143Y-97677001D02*
X158673571Y-97713287D01*
X158673571Y-97713287D02*
X158528428Y-97713287D01*
X158528428Y-97713287D02*
X158455857Y-97749572D01*
X158455857Y-97749572D02*
X158419571Y-97785858D01*
X158419571Y-97785858D02*
X158383285Y-97858430D01*
X158383285Y-97858430D02*
X158383285Y-98003572D01*
X158383285Y-98003572D02*
X158419571Y-98076144D01*
X158419571Y-98076144D02*
X158455857Y-98112430D01*
X158455857Y-98112430D02*
X158528428Y-98148715D01*
X158528428Y-98148715D02*
X158673571Y-98148715D01*
X158673571Y-98148715D02*
X158746143Y-98112430D01*
X158746143Y-98112430D02*
X158782428Y-98076144D01*
X158782428Y-98076144D02*
X158818714Y-98003572D01*
X158818714Y-98003572D02*
X158818714Y-97858430D01*
X158818714Y-97858430D02*
X158782428Y-97785858D01*
X158782428Y-97785858D02*
X158746143Y-97749572D01*
X158746143Y-97749572D02*
X158673571Y-97713287D01*
%TO.C,C14*%
X167404143Y-105668144D02*
X167367857Y-105704430D01*
X167367857Y-105704430D02*
X167259000Y-105740715D01*
X167259000Y-105740715D02*
X167186428Y-105740715D01*
X167186428Y-105740715D02*
X167077571Y-105704430D01*
X167077571Y-105704430D02*
X167005000Y-105631858D01*
X167005000Y-105631858D02*
X166968714Y-105559287D01*
X166968714Y-105559287D02*
X166932428Y-105414144D01*
X166932428Y-105414144D02*
X166932428Y-105305287D01*
X166932428Y-105305287D02*
X166968714Y-105160144D01*
X166968714Y-105160144D02*
X167005000Y-105087572D01*
X167005000Y-105087572D02*
X167077571Y-105015001D01*
X167077571Y-105015001D02*
X167186428Y-104978715D01*
X167186428Y-104978715D02*
X167259000Y-104978715D01*
X167259000Y-104978715D02*
X167367857Y-105015001D01*
X167367857Y-105015001D02*
X167404143Y-105051287D01*
X168129857Y-105740715D02*
X167694428Y-105740715D01*
X167912143Y-105740715D02*
X167912143Y-104978715D01*
X167912143Y-104978715D02*
X167839571Y-105087572D01*
X167839571Y-105087572D02*
X167767000Y-105160144D01*
X167767000Y-105160144D02*
X167694428Y-105196430D01*
X168783000Y-105232715D02*
X168783000Y-105740715D01*
X168601571Y-104942430D02*
X168420142Y-105486715D01*
X168420142Y-105486715D02*
X168891857Y-105486715D01*
%TO.C,R10*%
X158888143Y-96236715D02*
X158634143Y-95873858D01*
X158452714Y-96236715D02*
X158452714Y-95474715D01*
X158452714Y-95474715D02*
X158743000Y-95474715D01*
X158743000Y-95474715D02*
X158815571Y-95511001D01*
X158815571Y-95511001D02*
X158851857Y-95547287D01*
X158851857Y-95547287D02*
X158888143Y-95619858D01*
X158888143Y-95619858D02*
X158888143Y-95728715D01*
X158888143Y-95728715D02*
X158851857Y-95801287D01*
X158851857Y-95801287D02*
X158815571Y-95837572D01*
X158815571Y-95837572D02*
X158743000Y-95873858D01*
X158743000Y-95873858D02*
X158452714Y-95873858D01*
X159613857Y-96236715D02*
X159178428Y-96236715D01*
X159396143Y-96236715D02*
X159396143Y-95474715D01*
X159396143Y-95474715D02*
X159323571Y-95583572D01*
X159323571Y-95583572D02*
X159251000Y-95656144D01*
X159251000Y-95656144D02*
X159178428Y-95692430D01*
X160085571Y-95474715D02*
X160158142Y-95474715D01*
X160158142Y-95474715D02*
X160230714Y-95511001D01*
X160230714Y-95511001D02*
X160267000Y-95547287D01*
X160267000Y-95547287D02*
X160303285Y-95619858D01*
X160303285Y-95619858D02*
X160339571Y-95765001D01*
X160339571Y-95765001D02*
X160339571Y-95946430D01*
X160339571Y-95946430D02*
X160303285Y-96091572D01*
X160303285Y-96091572D02*
X160267000Y-96164144D01*
X160267000Y-96164144D02*
X160230714Y-96200430D01*
X160230714Y-96200430D02*
X160158142Y-96236715D01*
X160158142Y-96236715D02*
X160085571Y-96236715D01*
X160085571Y-96236715D02*
X160013000Y-96200430D01*
X160013000Y-96200430D02*
X159976714Y-96164144D01*
X159976714Y-96164144D02*
X159940428Y-96091572D01*
X159940428Y-96091572D02*
X159904142Y-95946430D01*
X159904142Y-95946430D02*
X159904142Y-95765001D01*
X159904142Y-95765001D02*
X159940428Y-95619858D01*
X159940428Y-95619858D02*
X159976714Y-95547287D01*
X159976714Y-95547287D02*
X160013000Y-95511001D01*
X160013000Y-95511001D02*
X160085571Y-95474715D01*
%TO.C,U5*%
X172647428Y-95594715D02*
X172647428Y-96211572D01*
X172647428Y-96211572D02*
X172683714Y-96284144D01*
X172683714Y-96284144D02*
X172720000Y-96320430D01*
X172720000Y-96320430D02*
X172792571Y-96356715D01*
X172792571Y-96356715D02*
X172937714Y-96356715D01*
X172937714Y-96356715D02*
X173010285Y-96320430D01*
X173010285Y-96320430D02*
X173046571Y-96284144D01*
X173046571Y-96284144D02*
X173082857Y-96211572D01*
X173082857Y-96211572D02*
X173082857Y-95594715D01*
X173808571Y-95594715D02*
X173445714Y-95594715D01*
X173445714Y-95594715D02*
X173409428Y-95957572D01*
X173409428Y-95957572D02*
X173445714Y-95921287D01*
X173445714Y-95921287D02*
X173518286Y-95885001D01*
X173518286Y-95885001D02*
X173699714Y-95885001D01*
X173699714Y-95885001D02*
X173772286Y-95921287D01*
X173772286Y-95921287D02*
X173808571Y-95957572D01*
X173808571Y-95957572D02*
X173844857Y-96030144D01*
X173844857Y-96030144D02*
X173844857Y-96211572D01*
X173844857Y-96211572D02*
X173808571Y-96284144D01*
X173808571Y-96284144D02*
X173772286Y-96320430D01*
X173772286Y-96320430D02*
X173699714Y-96356715D01*
X173699714Y-96356715D02*
X173518286Y-96356715D01*
X173518286Y-96356715D02*
X173445714Y-96320430D01*
X173445714Y-96320430D02*
X173409428Y-96284144D01*
D13*
%TO.C,SW1*%
X181102000Y-88701626D02*
X181210858Y-88737911D01*
X181210858Y-88737911D02*
X181392286Y-88737911D01*
X181392286Y-88737911D02*
X181464858Y-88701626D01*
X181464858Y-88701626D02*
X181501143Y-88665340D01*
X181501143Y-88665340D02*
X181537429Y-88592768D01*
X181537429Y-88592768D02*
X181537429Y-88520197D01*
X181537429Y-88520197D02*
X181501143Y-88447626D01*
X181501143Y-88447626D02*
X181464858Y-88411340D01*
X181464858Y-88411340D02*
X181392286Y-88375054D01*
X181392286Y-88375054D02*
X181247143Y-88338768D01*
X181247143Y-88338768D02*
X181174572Y-88302483D01*
X181174572Y-88302483D02*
X181138286Y-88266197D01*
X181138286Y-88266197D02*
X181102000Y-88193626D01*
X181102000Y-88193626D02*
X181102000Y-88121054D01*
X181102000Y-88121054D02*
X181138286Y-88048483D01*
X181138286Y-88048483D02*
X181174572Y-88012197D01*
X181174572Y-88012197D02*
X181247143Y-87975911D01*
X181247143Y-87975911D02*
X181428572Y-87975911D01*
X181428572Y-87975911D02*
X181537429Y-88012197D01*
X181791429Y-87975911D02*
X181972857Y-88737911D01*
X181972857Y-88737911D02*
X182118000Y-88193626D01*
X182118000Y-88193626D02*
X182263143Y-88737911D01*
X182263143Y-88737911D02*
X182444572Y-87975911D01*
X183134000Y-88737911D02*
X182698571Y-88737911D01*
X182916286Y-88737911D02*
X182916286Y-87975911D01*
X182916286Y-87975911D02*
X182843714Y-88084768D01*
X182843714Y-88084768D02*
X182771143Y-88157340D01*
X182771143Y-88157340D02*
X182698571Y-88193626D01*
D12*
%TO.C,D3*%
X175459571Y-96864715D02*
X175459571Y-96102715D01*
X175459571Y-96102715D02*
X175641000Y-96102715D01*
X175641000Y-96102715D02*
X175749857Y-96139001D01*
X175749857Y-96139001D02*
X175822428Y-96211572D01*
X175822428Y-96211572D02*
X175858714Y-96284144D01*
X175858714Y-96284144D02*
X175895000Y-96429287D01*
X175895000Y-96429287D02*
X175895000Y-96538144D01*
X175895000Y-96538144D02*
X175858714Y-96683287D01*
X175858714Y-96683287D02*
X175822428Y-96755858D01*
X175822428Y-96755858D02*
X175749857Y-96828430D01*
X175749857Y-96828430D02*
X175641000Y-96864715D01*
X175641000Y-96864715D02*
X175459571Y-96864715D01*
X176149000Y-96102715D02*
X176620714Y-96102715D01*
X176620714Y-96102715D02*
X176366714Y-96393001D01*
X176366714Y-96393001D02*
X176475571Y-96393001D01*
X176475571Y-96393001D02*
X176548143Y-96429287D01*
X176548143Y-96429287D02*
X176584428Y-96465572D01*
X176584428Y-96465572D02*
X176620714Y-96538144D01*
X176620714Y-96538144D02*
X176620714Y-96719572D01*
X176620714Y-96719572D02*
X176584428Y-96792144D01*
X176584428Y-96792144D02*
X176548143Y-96828430D01*
X176548143Y-96828430D02*
X176475571Y-96864715D01*
X176475571Y-96864715D02*
X176257857Y-96864715D01*
X176257857Y-96864715D02*
X176185285Y-96828430D01*
X176185285Y-96828430D02*
X176149000Y-96792144D01*
%TO.C,R13*%
X173500143Y-115506715D02*
X173246143Y-115143858D01*
X173064714Y-115506715D02*
X173064714Y-114744715D01*
X173064714Y-114744715D02*
X173355000Y-114744715D01*
X173355000Y-114744715D02*
X173427571Y-114781001D01*
X173427571Y-114781001D02*
X173463857Y-114817287D01*
X173463857Y-114817287D02*
X173500143Y-114889858D01*
X173500143Y-114889858D02*
X173500143Y-114998715D01*
X173500143Y-114998715D02*
X173463857Y-115071287D01*
X173463857Y-115071287D02*
X173427571Y-115107572D01*
X173427571Y-115107572D02*
X173355000Y-115143858D01*
X173355000Y-115143858D02*
X173064714Y-115143858D01*
X174225857Y-115506715D02*
X173790428Y-115506715D01*
X174008143Y-115506715D02*
X174008143Y-114744715D01*
X174008143Y-114744715D02*
X173935571Y-114853572D01*
X173935571Y-114853572D02*
X173863000Y-114926144D01*
X173863000Y-114926144D02*
X173790428Y-114962430D01*
X174479857Y-114744715D02*
X174951571Y-114744715D01*
X174951571Y-114744715D02*
X174697571Y-115035001D01*
X174697571Y-115035001D02*
X174806428Y-115035001D01*
X174806428Y-115035001D02*
X174879000Y-115071287D01*
X174879000Y-115071287D02*
X174915285Y-115107572D01*
X174915285Y-115107572D02*
X174951571Y-115180144D01*
X174951571Y-115180144D02*
X174951571Y-115361572D01*
X174951571Y-115361572D02*
X174915285Y-115434144D01*
X174915285Y-115434144D02*
X174879000Y-115470430D01*
X174879000Y-115470430D02*
X174806428Y-115506715D01*
X174806428Y-115506715D02*
X174588714Y-115506715D01*
X174588714Y-115506715D02*
X174516142Y-115470430D01*
X174516142Y-115470430D02*
X174479857Y-115434144D01*
%TO.C,R8*%
X155159000Y-96236715D02*
X154905000Y-95873858D01*
X154723571Y-96236715D02*
X154723571Y-95474715D01*
X154723571Y-95474715D02*
X155013857Y-95474715D01*
X155013857Y-95474715D02*
X155086428Y-95511001D01*
X155086428Y-95511001D02*
X155122714Y-95547287D01*
X155122714Y-95547287D02*
X155159000Y-95619858D01*
X155159000Y-95619858D02*
X155159000Y-95728715D01*
X155159000Y-95728715D02*
X155122714Y-95801287D01*
X155122714Y-95801287D02*
X155086428Y-95837572D01*
X155086428Y-95837572D02*
X155013857Y-95873858D01*
X155013857Y-95873858D02*
X154723571Y-95873858D01*
X155594428Y-95801287D02*
X155521857Y-95765001D01*
X155521857Y-95765001D02*
X155485571Y-95728715D01*
X155485571Y-95728715D02*
X155449285Y-95656144D01*
X155449285Y-95656144D02*
X155449285Y-95619858D01*
X155449285Y-95619858D02*
X155485571Y-95547287D01*
X155485571Y-95547287D02*
X155521857Y-95511001D01*
X155521857Y-95511001D02*
X155594428Y-95474715D01*
X155594428Y-95474715D02*
X155739571Y-95474715D01*
X155739571Y-95474715D02*
X155812143Y-95511001D01*
X155812143Y-95511001D02*
X155848428Y-95547287D01*
X155848428Y-95547287D02*
X155884714Y-95619858D01*
X155884714Y-95619858D02*
X155884714Y-95656144D01*
X155884714Y-95656144D02*
X155848428Y-95728715D01*
X155848428Y-95728715D02*
X155812143Y-95765001D01*
X155812143Y-95765001D02*
X155739571Y-95801287D01*
X155739571Y-95801287D02*
X155594428Y-95801287D01*
X155594428Y-95801287D02*
X155521857Y-95837572D01*
X155521857Y-95837572D02*
X155485571Y-95873858D01*
X155485571Y-95873858D02*
X155449285Y-95946430D01*
X155449285Y-95946430D02*
X155449285Y-96091572D01*
X155449285Y-96091572D02*
X155485571Y-96164144D01*
X155485571Y-96164144D02*
X155521857Y-96200430D01*
X155521857Y-96200430D02*
X155594428Y-96236715D01*
X155594428Y-96236715D02*
X155739571Y-96236715D01*
X155739571Y-96236715D02*
X155812143Y-96200430D01*
X155812143Y-96200430D02*
X155848428Y-96164144D01*
X155848428Y-96164144D02*
X155884714Y-96091572D01*
X155884714Y-96091572D02*
X155884714Y-95946430D01*
X155884714Y-95946430D02*
X155848428Y-95873858D01*
X155848428Y-95873858D02*
X155812143Y-95837572D01*
X155812143Y-95837572D02*
X155739571Y-95801287D01*
%TO.C,R15*%
X173500143Y-113220715D02*
X173246143Y-112857858D01*
X173064714Y-113220715D02*
X173064714Y-112458715D01*
X173064714Y-112458715D02*
X173355000Y-112458715D01*
X173355000Y-112458715D02*
X173427571Y-112495001D01*
X173427571Y-112495001D02*
X173463857Y-112531287D01*
X173463857Y-112531287D02*
X173500143Y-112603858D01*
X173500143Y-112603858D02*
X173500143Y-112712715D01*
X173500143Y-112712715D02*
X173463857Y-112785287D01*
X173463857Y-112785287D02*
X173427571Y-112821572D01*
X173427571Y-112821572D02*
X173355000Y-112857858D01*
X173355000Y-112857858D02*
X173064714Y-112857858D01*
X174225857Y-113220715D02*
X173790428Y-113220715D01*
X174008143Y-113220715D02*
X174008143Y-112458715D01*
X174008143Y-112458715D02*
X173935571Y-112567572D01*
X173935571Y-112567572D02*
X173863000Y-112640144D01*
X173863000Y-112640144D02*
X173790428Y-112676430D01*
X174915285Y-112458715D02*
X174552428Y-112458715D01*
X174552428Y-112458715D02*
X174516142Y-112821572D01*
X174516142Y-112821572D02*
X174552428Y-112785287D01*
X174552428Y-112785287D02*
X174625000Y-112749001D01*
X174625000Y-112749001D02*
X174806428Y-112749001D01*
X174806428Y-112749001D02*
X174879000Y-112785287D01*
X174879000Y-112785287D02*
X174915285Y-112821572D01*
X174915285Y-112821572D02*
X174951571Y-112894144D01*
X174951571Y-112894144D02*
X174951571Y-113075572D01*
X174951571Y-113075572D02*
X174915285Y-113148144D01*
X174915285Y-113148144D02*
X174879000Y-113184430D01*
X174879000Y-113184430D02*
X174806428Y-113220715D01*
X174806428Y-113220715D02*
X174625000Y-113220715D01*
X174625000Y-113220715D02*
X174552428Y-113184430D01*
X174552428Y-113184430D02*
X174516142Y-113148144D01*
%TO.C,R12*%
X167150143Y-98120715D02*
X166896143Y-97757858D01*
X166714714Y-98120715D02*
X166714714Y-97358715D01*
X166714714Y-97358715D02*
X167005000Y-97358715D01*
X167005000Y-97358715D02*
X167077571Y-97395001D01*
X167077571Y-97395001D02*
X167113857Y-97431287D01*
X167113857Y-97431287D02*
X167150143Y-97503858D01*
X167150143Y-97503858D02*
X167150143Y-97612715D01*
X167150143Y-97612715D02*
X167113857Y-97685287D01*
X167113857Y-97685287D02*
X167077571Y-97721572D01*
X167077571Y-97721572D02*
X167005000Y-97757858D01*
X167005000Y-97757858D02*
X166714714Y-97757858D01*
X167875857Y-98120715D02*
X167440428Y-98120715D01*
X167658143Y-98120715D02*
X167658143Y-97358715D01*
X167658143Y-97358715D02*
X167585571Y-97467572D01*
X167585571Y-97467572D02*
X167513000Y-97540144D01*
X167513000Y-97540144D02*
X167440428Y-97576430D01*
X168166142Y-97431287D02*
X168202428Y-97395001D01*
X168202428Y-97395001D02*
X168275000Y-97358715D01*
X168275000Y-97358715D02*
X168456428Y-97358715D01*
X168456428Y-97358715D02*
X168529000Y-97395001D01*
X168529000Y-97395001D02*
X168565285Y-97431287D01*
X168565285Y-97431287D02*
X168601571Y-97503858D01*
X168601571Y-97503858D02*
X168601571Y-97576430D01*
X168601571Y-97576430D02*
X168565285Y-97685287D01*
X168565285Y-97685287D02*
X168129857Y-98120715D01*
X168129857Y-98120715D02*
X168601571Y-98120715D01*
%TO.C,JP3*%
X166044666Y-116294819D02*
X166044666Y-117009104D01*
X166044666Y-117009104D02*
X165997047Y-117151961D01*
X165997047Y-117151961D02*
X165901809Y-117247200D01*
X165901809Y-117247200D02*
X165758952Y-117294819D01*
X165758952Y-117294819D02*
X165663714Y-117294819D01*
X166520857Y-117294819D02*
X166520857Y-116294819D01*
X166520857Y-116294819D02*
X166901809Y-116294819D01*
X166901809Y-116294819D02*
X166997047Y-116342438D01*
X166997047Y-116342438D02*
X167044666Y-116390057D01*
X167044666Y-116390057D02*
X167092285Y-116485295D01*
X167092285Y-116485295D02*
X167092285Y-116628152D01*
X167092285Y-116628152D02*
X167044666Y-116723390D01*
X167044666Y-116723390D02*
X166997047Y-116771009D01*
X166997047Y-116771009D02*
X166901809Y-116818628D01*
X166901809Y-116818628D02*
X166520857Y-116818628D01*
X167425619Y-116294819D02*
X168044666Y-116294819D01*
X168044666Y-116294819D02*
X167711333Y-116675771D01*
X167711333Y-116675771D02*
X167854190Y-116675771D01*
X167854190Y-116675771D02*
X167949428Y-116723390D01*
X167949428Y-116723390D02*
X167997047Y-116771009D01*
X167997047Y-116771009D02*
X168044666Y-116866247D01*
X168044666Y-116866247D02*
X168044666Y-117104342D01*
X168044666Y-117104342D02*
X167997047Y-117199580D01*
X167997047Y-117199580D02*
X167949428Y-117247200D01*
X167949428Y-117247200D02*
X167854190Y-117294819D01*
X167854190Y-117294819D02*
X167568476Y-117294819D01*
X167568476Y-117294819D02*
X167473238Y-117247200D01*
X167473238Y-117247200D02*
X167425619Y-117199580D01*
%TO.C,U2*%
X152955428Y-100808715D02*
X152955428Y-101425572D01*
X152955428Y-101425572D02*
X152991714Y-101498144D01*
X152991714Y-101498144D02*
X153028000Y-101534430D01*
X153028000Y-101534430D02*
X153100571Y-101570715D01*
X153100571Y-101570715D02*
X153245714Y-101570715D01*
X153245714Y-101570715D02*
X153318285Y-101534430D01*
X153318285Y-101534430D02*
X153354571Y-101498144D01*
X153354571Y-101498144D02*
X153390857Y-101425572D01*
X153390857Y-101425572D02*
X153390857Y-100808715D01*
X153717428Y-100881287D02*
X153753714Y-100845001D01*
X153753714Y-100845001D02*
X153826286Y-100808715D01*
X153826286Y-100808715D02*
X154007714Y-100808715D01*
X154007714Y-100808715D02*
X154080286Y-100845001D01*
X154080286Y-100845001D02*
X154116571Y-100881287D01*
X154116571Y-100881287D02*
X154152857Y-100953858D01*
X154152857Y-100953858D02*
X154152857Y-101026430D01*
X154152857Y-101026430D02*
X154116571Y-101135287D01*
X154116571Y-101135287D02*
X153681143Y-101570715D01*
X153681143Y-101570715D02*
X154152857Y-101570715D01*
%TO.C,D4*%
X167331571Y-93040715D02*
X167331571Y-92278715D01*
X167331571Y-92278715D02*
X167513000Y-92278715D01*
X167513000Y-92278715D02*
X167621857Y-92315001D01*
X167621857Y-92315001D02*
X167694428Y-92387572D01*
X167694428Y-92387572D02*
X167730714Y-92460144D01*
X167730714Y-92460144D02*
X167767000Y-92605287D01*
X167767000Y-92605287D02*
X167767000Y-92714144D01*
X167767000Y-92714144D02*
X167730714Y-92859287D01*
X167730714Y-92859287D02*
X167694428Y-92931858D01*
X167694428Y-92931858D02*
X167621857Y-93004430D01*
X167621857Y-93004430D02*
X167513000Y-93040715D01*
X167513000Y-93040715D02*
X167331571Y-93040715D01*
X168420143Y-92532715D02*
X168420143Y-93040715D01*
X168238714Y-92242430D02*
X168057285Y-92786715D01*
X168057285Y-92786715D02*
X168529000Y-92786715D01*
%TO.C,C12*%
X175532143Y-99318144D02*
X175495857Y-99354430D01*
X175495857Y-99354430D02*
X175387000Y-99390715D01*
X175387000Y-99390715D02*
X175314428Y-99390715D01*
X175314428Y-99390715D02*
X175205571Y-99354430D01*
X175205571Y-99354430D02*
X175133000Y-99281858D01*
X175133000Y-99281858D02*
X175096714Y-99209287D01*
X175096714Y-99209287D02*
X175060428Y-99064144D01*
X175060428Y-99064144D02*
X175060428Y-98955287D01*
X175060428Y-98955287D02*
X175096714Y-98810144D01*
X175096714Y-98810144D02*
X175133000Y-98737572D01*
X175133000Y-98737572D02*
X175205571Y-98665001D01*
X175205571Y-98665001D02*
X175314428Y-98628715D01*
X175314428Y-98628715D02*
X175387000Y-98628715D01*
X175387000Y-98628715D02*
X175495857Y-98665001D01*
X175495857Y-98665001D02*
X175532143Y-98701287D01*
X176257857Y-99390715D02*
X175822428Y-99390715D01*
X176040143Y-99390715D02*
X176040143Y-98628715D01*
X176040143Y-98628715D02*
X175967571Y-98737572D01*
X175967571Y-98737572D02*
X175895000Y-98810144D01*
X175895000Y-98810144D02*
X175822428Y-98846430D01*
X176548142Y-98701287D02*
X176584428Y-98665001D01*
X176584428Y-98665001D02*
X176657000Y-98628715D01*
X176657000Y-98628715D02*
X176838428Y-98628715D01*
X176838428Y-98628715D02*
X176911000Y-98665001D01*
X176911000Y-98665001D02*
X176947285Y-98701287D01*
X176947285Y-98701287D02*
X176983571Y-98773858D01*
X176983571Y-98773858D02*
X176983571Y-98846430D01*
X176983571Y-98846430D02*
X176947285Y-98955287D01*
X176947285Y-98955287D02*
X176511857Y-99390715D01*
X176511857Y-99390715D02*
X176983571Y-99390715D01*
%TO.C,J4*%
X138604666Y-103404319D02*
X138604666Y-104118604D01*
X138604666Y-104118604D02*
X138557047Y-104261461D01*
X138557047Y-104261461D02*
X138461809Y-104356700D01*
X138461809Y-104356700D02*
X138318952Y-104404319D01*
X138318952Y-104404319D02*
X138223714Y-104404319D01*
X139509428Y-103737652D02*
X139509428Y-104404319D01*
X139271333Y-103356700D02*
X139033238Y-104070985D01*
X139033238Y-104070985D02*
X139652285Y-104070985D01*
%TO.C,R5*%
X168021000Y-110580715D02*
X167767000Y-110217858D01*
X167585571Y-110580715D02*
X167585571Y-109818715D01*
X167585571Y-109818715D02*
X167875857Y-109818715D01*
X167875857Y-109818715D02*
X167948428Y-109855001D01*
X167948428Y-109855001D02*
X167984714Y-109891287D01*
X167984714Y-109891287D02*
X168021000Y-109963858D01*
X168021000Y-109963858D02*
X168021000Y-110072715D01*
X168021000Y-110072715D02*
X167984714Y-110145287D01*
X167984714Y-110145287D02*
X167948428Y-110181572D01*
X167948428Y-110181572D02*
X167875857Y-110217858D01*
X167875857Y-110217858D02*
X167585571Y-110217858D01*
X168710428Y-109818715D02*
X168347571Y-109818715D01*
X168347571Y-109818715D02*
X168311285Y-110181572D01*
X168311285Y-110181572D02*
X168347571Y-110145287D01*
X168347571Y-110145287D02*
X168420143Y-110109001D01*
X168420143Y-110109001D02*
X168601571Y-110109001D01*
X168601571Y-110109001D02*
X168674143Y-110145287D01*
X168674143Y-110145287D02*
X168710428Y-110181572D01*
X168710428Y-110181572D02*
X168746714Y-110254144D01*
X168746714Y-110254144D02*
X168746714Y-110435572D01*
X168746714Y-110435572D02*
X168710428Y-110508144D01*
X168710428Y-110508144D02*
X168674143Y-110544430D01*
X168674143Y-110544430D02*
X168601571Y-110580715D01*
X168601571Y-110580715D02*
X168420143Y-110580715D01*
X168420143Y-110580715D02*
X168347571Y-110544430D01*
X168347571Y-110544430D02*
X168311285Y-110508144D01*
%TO.C,R11*%
X158888143Y-93696715D02*
X158634143Y-93333858D01*
X158452714Y-93696715D02*
X158452714Y-92934715D01*
X158452714Y-92934715D02*
X158743000Y-92934715D01*
X158743000Y-92934715D02*
X158815571Y-92971001D01*
X158815571Y-92971001D02*
X158851857Y-93007287D01*
X158851857Y-93007287D02*
X158888143Y-93079858D01*
X158888143Y-93079858D02*
X158888143Y-93188715D01*
X158888143Y-93188715D02*
X158851857Y-93261287D01*
X158851857Y-93261287D02*
X158815571Y-93297572D01*
X158815571Y-93297572D02*
X158743000Y-93333858D01*
X158743000Y-93333858D02*
X158452714Y-93333858D01*
X159613857Y-93696715D02*
X159178428Y-93696715D01*
X159396143Y-93696715D02*
X159396143Y-92934715D01*
X159396143Y-92934715D02*
X159323571Y-93043572D01*
X159323571Y-93043572D02*
X159251000Y-93116144D01*
X159251000Y-93116144D02*
X159178428Y-93152430D01*
X160339571Y-93696715D02*
X159904142Y-93696715D01*
X160121857Y-93696715D02*
X160121857Y-92934715D01*
X160121857Y-92934715D02*
X160049285Y-93043572D01*
X160049285Y-93043572D02*
X159976714Y-93116144D01*
X159976714Y-93116144D02*
X159904142Y-93152430D01*
%TO.C,J6*%
X179498666Y-119850819D02*
X179498666Y-120565104D01*
X179498666Y-120565104D02*
X179451047Y-120707961D01*
X179451047Y-120707961D02*
X179355809Y-120803200D01*
X179355809Y-120803200D02*
X179212952Y-120850819D01*
X179212952Y-120850819D02*
X179117714Y-120850819D01*
X180403428Y-119850819D02*
X180212952Y-119850819D01*
X180212952Y-119850819D02*
X180117714Y-119898438D01*
X180117714Y-119898438D02*
X180070095Y-119946057D01*
X180070095Y-119946057D02*
X179974857Y-120088914D01*
X179974857Y-120088914D02*
X179927238Y-120279390D01*
X179927238Y-120279390D02*
X179927238Y-120660342D01*
X179927238Y-120660342D02*
X179974857Y-120755580D01*
X179974857Y-120755580D02*
X180022476Y-120803200D01*
X180022476Y-120803200D02*
X180117714Y-120850819D01*
X180117714Y-120850819D02*
X180308190Y-120850819D01*
X180308190Y-120850819D02*
X180403428Y-120803200D01*
X180403428Y-120803200D02*
X180451047Y-120755580D01*
X180451047Y-120755580D02*
X180498666Y-120660342D01*
X180498666Y-120660342D02*
X180498666Y-120422247D01*
X180498666Y-120422247D02*
X180451047Y-120327009D01*
X180451047Y-120327009D02*
X180403428Y-120279390D01*
X180403428Y-120279390D02*
X180308190Y-120231771D01*
X180308190Y-120231771D02*
X180117714Y-120231771D01*
X180117714Y-120231771D02*
X180022476Y-120279390D01*
X180022476Y-120279390D02*
X179974857Y-120327009D01*
X179974857Y-120327009D02*
X179927238Y-120422247D01*
%TO.C,C9*%
X156315000Y-98076144D02*
X156278714Y-98112430D01*
X156278714Y-98112430D02*
X156169857Y-98148715D01*
X156169857Y-98148715D02*
X156097285Y-98148715D01*
X156097285Y-98148715D02*
X155988428Y-98112430D01*
X155988428Y-98112430D02*
X155915857Y-98039858D01*
X155915857Y-98039858D02*
X155879571Y-97967287D01*
X155879571Y-97967287D02*
X155843285Y-97822144D01*
X155843285Y-97822144D02*
X155843285Y-97713287D01*
X155843285Y-97713287D02*
X155879571Y-97568144D01*
X155879571Y-97568144D02*
X155915857Y-97495572D01*
X155915857Y-97495572D02*
X155988428Y-97423001D01*
X155988428Y-97423001D02*
X156097285Y-97386715D01*
X156097285Y-97386715D02*
X156169857Y-97386715D01*
X156169857Y-97386715D02*
X156278714Y-97423001D01*
X156278714Y-97423001D02*
X156315000Y-97459287D01*
X156677857Y-98148715D02*
X156823000Y-98148715D01*
X156823000Y-98148715D02*
X156895571Y-98112430D01*
X156895571Y-98112430D02*
X156931857Y-98076144D01*
X156931857Y-98076144D02*
X157004428Y-97967287D01*
X157004428Y-97967287D02*
X157040714Y-97822144D01*
X157040714Y-97822144D02*
X157040714Y-97531858D01*
X157040714Y-97531858D02*
X157004428Y-97459287D01*
X157004428Y-97459287D02*
X156968143Y-97423001D01*
X156968143Y-97423001D02*
X156895571Y-97386715D01*
X156895571Y-97386715D02*
X156750428Y-97386715D01*
X156750428Y-97386715D02*
X156677857Y-97423001D01*
X156677857Y-97423001D02*
X156641571Y-97459287D01*
X156641571Y-97459287D02*
X156605285Y-97531858D01*
X156605285Y-97531858D02*
X156605285Y-97713287D01*
X156605285Y-97713287D02*
X156641571Y-97785858D01*
X156641571Y-97785858D02*
X156677857Y-97822144D01*
X156677857Y-97822144D02*
X156750428Y-97858430D01*
X156750428Y-97858430D02*
X156895571Y-97858430D01*
X156895571Y-97858430D02*
X156968143Y-97822144D01*
X156968143Y-97822144D02*
X157004428Y-97785858D01*
X157004428Y-97785858D02*
X157040714Y-97713287D01*
%TO.C,R6*%
X167894500Y-102705715D02*
X167640500Y-102342858D01*
X167459071Y-102705715D02*
X167459071Y-101943715D01*
X167459071Y-101943715D02*
X167749357Y-101943715D01*
X167749357Y-101943715D02*
X167821928Y-101980001D01*
X167821928Y-101980001D02*
X167858214Y-102016287D01*
X167858214Y-102016287D02*
X167894500Y-102088858D01*
X167894500Y-102088858D02*
X167894500Y-102197715D01*
X167894500Y-102197715D02*
X167858214Y-102270287D01*
X167858214Y-102270287D02*
X167821928Y-102306572D01*
X167821928Y-102306572D02*
X167749357Y-102342858D01*
X167749357Y-102342858D02*
X167459071Y-102342858D01*
X168547643Y-101943715D02*
X168402500Y-101943715D01*
X168402500Y-101943715D02*
X168329928Y-101980001D01*
X168329928Y-101980001D02*
X168293643Y-102016287D01*
X168293643Y-102016287D02*
X168221071Y-102125144D01*
X168221071Y-102125144D02*
X168184785Y-102270287D01*
X168184785Y-102270287D02*
X168184785Y-102560572D01*
X168184785Y-102560572D02*
X168221071Y-102633144D01*
X168221071Y-102633144D02*
X168257357Y-102669430D01*
X168257357Y-102669430D02*
X168329928Y-102705715D01*
X168329928Y-102705715D02*
X168475071Y-102705715D01*
X168475071Y-102705715D02*
X168547643Y-102669430D01*
X168547643Y-102669430D02*
X168583928Y-102633144D01*
X168583928Y-102633144D02*
X168620214Y-102560572D01*
X168620214Y-102560572D02*
X168620214Y-102379144D01*
X168620214Y-102379144D02*
X168583928Y-102306572D01*
X168583928Y-102306572D02*
X168547643Y-102270287D01*
X168547643Y-102270287D02*
X168475071Y-102234001D01*
X168475071Y-102234001D02*
X168329928Y-102234001D01*
X168329928Y-102234001D02*
X168257357Y-102270287D01*
X168257357Y-102270287D02*
X168221071Y-102306572D01*
X168221071Y-102306572D02*
X168184785Y-102379144D01*
%TO.C,U4*%
X177219428Y-110326715D02*
X177219428Y-110943572D01*
X177219428Y-110943572D02*
X177255714Y-111016144D01*
X177255714Y-111016144D02*
X177292000Y-111052430D01*
X177292000Y-111052430D02*
X177364571Y-111088715D01*
X177364571Y-111088715D02*
X177509714Y-111088715D01*
X177509714Y-111088715D02*
X177582285Y-111052430D01*
X177582285Y-111052430D02*
X177618571Y-111016144D01*
X177618571Y-111016144D02*
X177654857Y-110943572D01*
X177654857Y-110943572D02*
X177654857Y-110326715D01*
X178344286Y-110580715D02*
X178344286Y-111088715D01*
X178162857Y-110290430D02*
X177981428Y-110834715D01*
X177981428Y-110834715D02*
X178453143Y-110834715D01*
D10*
%TO.C,C1*%
X155700000Y-111365420D02*
X155700000Y-111646580D01*
X156720000Y-111365420D02*
X156720000Y-111646580D01*
%TO.C,C2*%
X163976164Y-110088000D02*
X164191836Y-110088000D01*
X163976164Y-109368000D02*
X164191836Y-109368000D01*
%TO.C,C3*%
X159638000Y-99555836D02*
X159638000Y-99340164D01*
X160358000Y-99555836D02*
X160358000Y-99340164D01*
%TO.C,C4*%
X152252000Y-107041836D02*
X152252000Y-106826164D01*
X151532000Y-107041836D02*
X151532000Y-106826164D01*
%TO.C,C5*%
X153818000Y-110890164D02*
X153818000Y-111105836D01*
X154538000Y-110890164D02*
X154538000Y-111105836D01*
%TO.C,C6*%
X163976164Y-100690000D02*
X164191836Y-100690000D01*
X163976164Y-99970000D02*
X164191836Y-99970000D01*
%TO.C,C7*%
X152140000Y-110890164D02*
X152140000Y-111105836D01*
X151420000Y-110890164D02*
X151420000Y-111105836D01*
%TO.C,C10*%
X170318920Y-95238000D02*
X170600080Y-95238000D01*
X170318920Y-94218000D02*
X170600080Y-94218000D01*
%TO.C,C11*%
X170293420Y-108446000D02*
X170574580Y-108446000D01*
X170293420Y-107426000D02*
X170574580Y-107426000D01*
%TO.C,D1*%
X171919000Y-116037000D02*
X171919000Y-114567000D01*
X171919000Y-114567000D02*
X169634000Y-114567000D01*
X169634000Y-116037000D02*
X171919000Y-116037000D01*
%TO.C,D2*%
X175552000Y-101867000D02*
X173267000Y-101867000D01*
X173267000Y-101867000D02*
X173267000Y-103337000D01*
X173267000Y-103337000D02*
X175552000Y-103337000D01*
%TO.C,FB1*%
X174606378Y-104836000D02*
X175405622Y-104836000D01*
X174606378Y-105956000D02*
X175405622Y-105956000D01*
%TO.C,J2*%
X137414000Y-120312000D02*
X137414000Y-122972000D01*
X156844000Y-119914929D02*
X156844000Y-120312000D01*
X151764000Y-122972000D02*
X151764000Y-128972000D01*
X140844000Y-128972000D02*
X140844000Y-122972000D01*
X144144000Y-119914929D02*
X144144000Y-120312000D01*
X134814000Y-120312000D02*
X134814000Y-122972000D01*
X151764000Y-119914929D02*
X151764000Y-120312000D01*
X135764000Y-119914929D02*
X135764000Y-120312000D01*
X149224000Y-128972000D02*
X148464000Y-128972000D01*
X158624000Y-128972000D02*
X158624000Y-122972000D01*
X161544000Y-117602000D02*
X162814000Y-117602000D01*
X145924000Y-128972000D02*
X145924000Y-122972000D01*
X161504000Y-122972000D02*
X161504000Y-128972000D01*
X161924000Y-128972000D02*
X161164000Y-128972000D01*
X138304000Y-128972000D02*
X138304000Y-122972000D01*
X162814000Y-117602000D02*
X162814000Y-118872000D01*
X152654000Y-120312000D02*
X152654000Y-122972000D01*
X148464000Y-128972000D02*
X148464000Y-122972000D01*
X154304000Y-119914929D02*
X154304000Y-120312000D01*
X146684000Y-122972000D02*
X146684000Y-128972000D01*
X143384000Y-119914929D02*
X143384000Y-120312000D01*
X158624000Y-119914929D02*
X158624000Y-120312000D01*
X141604000Y-128972000D02*
X140844000Y-128972000D01*
X161864000Y-122972000D02*
X161864000Y-128972000D01*
X161744000Y-122972000D02*
X161744000Y-128972000D01*
X151764000Y-128972000D02*
X151004000Y-128972000D01*
X136524000Y-128972000D02*
X135764000Y-128972000D01*
X149224000Y-122972000D02*
X149224000Y-128972000D01*
X161384000Y-122972000D02*
X161384000Y-128972000D01*
X161924000Y-122972000D02*
X161924000Y-128972000D01*
X161164000Y-128972000D02*
X161164000Y-122972000D01*
X142494000Y-120312000D02*
X142494000Y-122972000D01*
X154304000Y-128972000D02*
X153544000Y-128972000D01*
X156084000Y-128972000D02*
X156084000Y-122972000D01*
X143384000Y-128972000D02*
X143384000Y-122972000D01*
X138304000Y-119914929D02*
X138304000Y-120312000D01*
X154304000Y-122972000D02*
X154304000Y-128972000D01*
X159384000Y-128972000D02*
X158624000Y-128972000D01*
X153544000Y-128972000D02*
X153544000Y-122972000D01*
X145924000Y-119914929D02*
X145924000Y-120312000D01*
X159384000Y-122972000D02*
X159384000Y-128972000D01*
X141604000Y-119914929D02*
X141604000Y-120312000D01*
X147574000Y-120312000D02*
X147574000Y-122972000D01*
X161164000Y-119982000D02*
X161164000Y-120312000D01*
X139954000Y-120312000D02*
X139954000Y-122972000D01*
X162874000Y-120312000D02*
X134814000Y-120312000D01*
X139064000Y-119914929D02*
X139064000Y-120312000D01*
X139064000Y-122972000D02*
X139064000Y-128972000D01*
X135764000Y-128972000D02*
X135764000Y-122972000D01*
X161264000Y-122972000D02*
X161264000Y-128972000D01*
X156084000Y-119914929D02*
X156084000Y-120312000D01*
X151004000Y-119914929D02*
X151004000Y-120312000D01*
X155194000Y-120312000D02*
X155194000Y-122972000D01*
X144144000Y-122972000D02*
X144144000Y-128972000D01*
X146684000Y-119914929D02*
X146684000Y-120312000D01*
X156844000Y-128972000D02*
X156084000Y-128972000D01*
X139064000Y-128972000D02*
X138304000Y-128972000D01*
X140844000Y-119914929D02*
X140844000Y-120312000D01*
X156844000Y-122972000D02*
X156844000Y-128972000D01*
X146684000Y-128972000D02*
X145924000Y-128972000D01*
X136524000Y-122972000D02*
X136524000Y-128972000D01*
X144144000Y-128972000D02*
X143384000Y-128972000D01*
X149224000Y-119914929D02*
X149224000Y-120312000D01*
X151004000Y-128972000D02*
X151004000Y-122972000D01*
X145034000Y-120312000D02*
X145034000Y-122972000D01*
X153544000Y-119914929D02*
X153544000Y-120312000D01*
X148464000Y-119914929D02*
X148464000Y-120312000D01*
X161924000Y-119982000D02*
X161924000Y-120312000D01*
X161624000Y-122972000D02*
X161624000Y-128972000D01*
X150114000Y-120312000D02*
X150114000Y-122972000D01*
X160274000Y-120312000D02*
X160274000Y-122972000D01*
X157734000Y-120312000D02*
X157734000Y-122972000D01*
X141604000Y-122972000D02*
X141604000Y-128972000D01*
X159384000Y-119914929D02*
X159384000Y-120312000D01*
X136524000Y-119914929D02*
X136524000Y-120312000D01*
X162874000Y-122972000D02*
X162874000Y-120312000D01*
X134814000Y-122972000D02*
X162874000Y-122972000D01*
%TO.C,JP1*%
X165738000Y-96728000D02*
X165738000Y-97328000D01*
X165038000Y-98028000D02*
X163638000Y-98028000D01*
X163638000Y-96028000D02*
X165038000Y-96028000D01*
X162938000Y-97328000D02*
X162938000Y-96728000D01*
X165038000Y-98028000D02*
G75*
G03*
X165738000Y-97328000I1J699999D01*
G01*
X162938000Y-97328000D02*
G75*
G03*
X163638000Y-98028000I700000J0D01*
G01*
X165738000Y-96728000D02*
G75*
G03*
X165038000Y-96028000I-699999J1D01*
G01*
X163638000Y-96028000D02*
G75*
G03*
X162938000Y-96728000I0J-700000D01*
G01*
%TO.C,R1*%
X159640000Y-110844359D02*
X159640000Y-111151641D01*
X160400000Y-110844359D02*
X160400000Y-111151641D01*
%TO.C,R2*%
X140338000Y-106780359D02*
X140338000Y-107087641D01*
X141098000Y-106780359D02*
X141098000Y-107087641D01*
%TO.C,R3*%
X170671258Y-113284500D02*
X170196742Y-113284500D01*
X170671258Y-112239500D02*
X170196742Y-112239500D01*
%TO.C,U1*%
X149689000Y-109982000D02*
X149689000Y-106382000D01*
X142919000Y-109982000D02*
X142919000Y-107782000D01*
X149689000Y-109982000D02*
X149689000Y-112182000D01*
X142919000Y-109982000D02*
X142919000Y-112182000D01*
%TO.C,Y1*%
X162284000Y-102456000D02*
X162284000Y-108206000D01*
X162284000Y-108206000D02*
X165884000Y-108206000D01*
X165884000Y-108206000D02*
X165884000Y-102456000D01*
%TO.C,R4*%
X157862000Y-110844359D02*
X157862000Y-111151641D01*
X158622000Y-110844359D02*
X158622000Y-111151641D01*
%TO.C,J3*%
X179264000Y-100556000D02*
X179524000Y-100556000D01*
X183574000Y-108176000D02*
X181804000Y-108176000D01*
X183574000Y-108176000D02*
X183574000Y-107796000D01*
X181804000Y-100556000D02*
X183574000Y-100556000D01*
X179524000Y-108176000D02*
X179264000Y-108176000D01*
X183574000Y-100556000D02*
X183574000Y-100936000D01*
%TO.C,R16*%
X173836359Y-119506000D02*
X174143641Y-119506000D01*
X173836359Y-118746000D02*
X174143641Y-118746000D01*
%TO.C,JP2*%
X163384000Y-111268000D02*
X164784000Y-111268000D01*
X162684000Y-112568000D02*
X162684000Y-111968000D01*
X165484000Y-111968000D02*
X165484000Y-112568000D01*
X164784000Y-113268000D02*
X163384000Y-113268000D01*
X164784000Y-113268000D02*
G75*
G03*
X165484000Y-112568000I0J700000D01*
G01*
X163384000Y-111268000D02*
G75*
G03*
X162684000Y-111968000I-1J-699999D01*
G01*
X165484000Y-111968000D02*
G75*
G03*
X164784000Y-111268000I-700000J0D01*
G01*
X162684000Y-112568000D02*
G75*
G03*
X163384000Y-113268000I699999J-1D01*
G01*
%TO.C,R7*%
X170671258Y-100838500D02*
X170196742Y-100838500D01*
X170671258Y-99793500D02*
X170196742Y-99793500D01*
%TO.C,C13*%
X159270164Y-89944000D02*
X159485836Y-89944000D01*
X159270164Y-90664000D02*
X159485836Y-90664000D01*
%TO.C,R9*%
X155441641Y-92716000D02*
X155134359Y-92716000D01*
X155441641Y-91956000D02*
X155134359Y-91956000D01*
%TO.C,C8*%
X157860000Y-99555836D02*
X157860000Y-99340164D01*
X158580000Y-99555836D02*
X158580000Y-99340164D01*
%TO.C,C14*%
X170280420Y-105906000D02*
X170561580Y-105906000D01*
X170280420Y-104886000D02*
X170561580Y-104886000D01*
%TO.C,R10*%
X159531641Y-95256000D02*
X159224359Y-95256000D01*
X159531641Y-94496000D02*
X159224359Y-94496000D01*
%TO.C,U5*%
X175006000Y-92166000D02*
X175656000Y-92166000D01*
X175006000Y-92166000D02*
X173331000Y-92166000D01*
X175006000Y-95286000D02*
X174356000Y-95286000D01*
X175006000Y-95286000D02*
X175656000Y-95286000D01*
D14*
%TO.C,SW1*%
X183914000Y-90112000D02*
X183914000Y-97312000D01*
X184914000Y-95212000D02*
X184914000Y-93712000D01*
X183914000Y-95212000D02*
X184914000Y-95212000D01*
D15*
X178914000Y-96312000D02*
X178914000Y-96312000D01*
D14*
X184914000Y-93712000D02*
X183914000Y-93712000D01*
X180914000Y-97312000D02*
X180914000Y-90112000D01*
D15*
X178914000Y-96112000D02*
X178914000Y-96112000D01*
D14*
X183914000Y-97312000D02*
X180914000Y-97312000D01*
X180914000Y-90112000D02*
X183914000Y-90112000D01*
D15*
X178914000Y-96112000D02*
G75*
G03*
X178914000Y-96312000I0J-100000D01*
G01*
X178914000Y-96312000D02*
G75*
G03*
X178914000Y-96112000I0J100000D01*
G01*
D10*
%TO.C,D3*%
X173952000Y-101051000D02*
X176237000Y-101051000D01*
X176237000Y-101051000D02*
X176237000Y-99581000D01*
X176237000Y-99581000D02*
X173952000Y-99581000D01*
%TO.C,R13*%
X173836359Y-115952000D02*
X174143641Y-115952000D01*
X173836359Y-116712000D02*
X174143641Y-116712000D01*
%TO.C,R8*%
X155439641Y-95256000D02*
X155132359Y-95256000D01*
X155439641Y-94496000D02*
X155132359Y-94496000D01*
%TO.C,R15*%
X173836359Y-114426000D02*
X174143641Y-114426000D01*
X173836359Y-113666000D02*
X174143641Y-113666000D01*
%TO.C,R12*%
X170196742Y-97253500D02*
X170671258Y-97253500D01*
X170196742Y-98298500D02*
X170671258Y-98298500D01*
%TO.C,JP3*%
X164784000Y-116570000D02*
X163384000Y-116570000D01*
X165484000Y-115270000D02*
X165484000Y-115870000D01*
X162684000Y-115870000D02*
X162684000Y-115270000D01*
X163384000Y-114570000D02*
X164784000Y-114570000D01*
X165484000Y-115270000D02*
G75*
G03*
X164784000Y-114570000I-700000J0D01*
G01*
X164784000Y-116570000D02*
G75*
G03*
X165484000Y-115870000I0J700000D01*
G01*
X163384000Y-114570000D02*
G75*
G03*
X162684000Y-115270000I-1J-699999D01*
G01*
X162684000Y-115870000D02*
G75*
G03*
X163384000Y-116570000I699999J-1D01*
G01*
%TO.C,U2*%
X159956000Y-107646000D02*
X159481000Y-107646000D01*
X154736000Y-107171000D02*
X154736000Y-107646000D01*
X159956000Y-107171000D02*
X159956000Y-107646000D01*
X154736000Y-102901000D02*
X154736000Y-102426000D01*
X159956000Y-102901000D02*
X159956000Y-102426000D01*
X154736000Y-107646000D02*
X155211000Y-107646000D01*
X154736000Y-102426000D02*
X155211000Y-102426000D01*
%TO.C,D4*%
X168949000Y-93431000D02*
X171234000Y-93431000D01*
X171234000Y-91961000D02*
X168949000Y-91961000D01*
X168949000Y-91961000D02*
X168949000Y-93431000D01*
%TO.C,C12*%
X174611420Y-98286000D02*
X174892580Y-98286000D01*
X174611420Y-97266000D02*
X174892580Y-97266000D01*
%TO.C,J4*%
X138964000Y-91371500D02*
X138964000Y-95821500D01*
X138964000Y-100921500D02*
X138964000Y-101641500D01*
X151144000Y-101641500D02*
X151144000Y-91821500D01*
X138964000Y-101641500D02*
X141644000Y-101641500D01*
X143944000Y-101641500D02*
X147614000Y-101641500D01*
X138964000Y-97221500D02*
X138964000Y-99521500D01*
X149914000Y-101641500D02*
X151144000Y-101641500D01*
X140444000Y-90001500D02*
X141304000Y-90001500D01*
%TO.C,R5*%
X170196742Y-110758500D02*
X170671258Y-110758500D01*
X170196742Y-109713500D02*
X170671258Y-109713500D01*
%TO.C,R11*%
X159529641Y-91956000D02*
X159222359Y-91956000D01*
X159529641Y-92716000D02*
X159222359Y-92716000D01*
%TO.C,J6*%
X181851000Y-118980000D02*
X181851000Y-119045000D01*
X181851000Y-112575000D02*
X181851000Y-112640000D01*
X178321000Y-112575000D02*
X178321000Y-112640000D01*
X176996000Y-112640000D02*
X178321000Y-112640000D01*
X178321000Y-112575000D02*
X181851000Y-112575000D01*
X178321000Y-119045000D02*
X181851000Y-119045000D01*
X178321000Y-118980000D02*
X178321000Y-119045000D01*
%TO.C,C9*%
X156802000Y-99555836D02*
X156802000Y-99340164D01*
X156082000Y-99555836D02*
X156082000Y-99340164D01*
%TO.C,R6*%
X170671258Y-103124500D02*
X170196742Y-103124500D01*
X170671258Y-102079500D02*
X170196742Y-102079500D01*
%TO.C,U4*%
X175006000Y-110780000D02*
X174206000Y-110780000D01*
X175006000Y-107660000D02*
X173206000Y-107660000D01*
X175006000Y-110780000D02*
X175806000Y-110780000D01*
X175006000Y-107660000D02*
X175806000Y-107660000D01*
%TD*%
M02*
