%TF.GenerationSoftware,KiCad,Pcbnew,7.0.5*%
%TF.CreationDate,2023-10-10T15:43:22+02:00*%
%TF.ProjectId,sharp-ce140f-emul_v2,73686172-702d-4636-9531-3430662d656d,rev?*%
%TF.SameCoordinates,Original*%
%TF.FileFunction,Copper,L2,Bot*%
%TF.FilePolarity,Positive*%
%FSLAX46Y46*%
G04 Gerber Fmt 4.6, Leading zero omitted, Abs format (unit mm)*
G04 Created by KiCad (PCBNEW 7.0.5) date 2023-10-10 15:43:22*
%MOMM*%
%LPD*%
G01*
G04 APERTURE LIST*
G04 Aperture macros list*
%AMRoundRect*
0 Rectangle with rounded corners*
0 $1 Rounding radius*
0 $2 $3 $4 $5 $6 $7 $8 $9 X,Y pos of 4 corners*
0 Add a 4 corners polygon primitive as box body*
4,1,4,$2,$3,$4,$5,$6,$7,$8,$9,$2,$3,0*
0 Add four circle primitives for the rounded corners*
1,1,$1+$1,$2,$3*
1,1,$1+$1,$4,$5*
1,1,$1+$1,$6,$7*
1,1,$1+$1,$8,$9*
0 Add four rect primitives between the rounded corners*
20,1,$1+$1,$2,$3,$4,$5,0*
20,1,$1+$1,$4,$5,$6,$7,0*
20,1,$1+$1,$6,$7,$8,$9,0*
20,1,$1+$1,$8,$9,$2,$3,0*%
G04 Aperture macros list end*
%TA.AperFunction,ComponentPad*%
%ADD10R,1.700000X1.700000*%
%TD*%
%TA.AperFunction,ComponentPad*%
%ADD11O,1.700000X1.700000*%
%TD*%
%TA.AperFunction,ComponentPad*%
%ADD12RoundRect,0.250001X-0.799999X-0.799999X0.799999X-0.799999X0.799999X0.799999X-0.799999X0.799999X0*%
%TD*%
%TA.AperFunction,ComponentPad*%
%ADD13C,2.100000*%
%TD*%
%TA.AperFunction,ComponentPad*%
%ADD14RoundRect,0.250001X0.799999X0.799999X-0.799999X0.799999X-0.799999X-0.799999X0.799999X-0.799999X0*%
%TD*%
%TA.AperFunction,ComponentPad*%
%ADD15C,1.381000*%
%TD*%
%TA.AperFunction,ViaPad*%
%ADD16C,0.400000*%
%TD*%
%TA.AperFunction,ViaPad*%
%ADD17C,1.000000*%
%TD*%
%TA.AperFunction,Conductor*%
%ADD18C,0.100000*%
%TD*%
%TA.AperFunction,Conductor*%
%ADD19C,0.800000*%
%TD*%
%TA.AperFunction,Conductor*%
%ADD20C,0.200000*%
%TD*%
G04 APERTURE END LIST*
D10*
%TO.P,J2,1,MT_OUT2*%
%TO.N,/mt_out2*%
X161544000Y-118872000D03*
D11*
%TO.P,J2,2,VGG*%
%TO.N,/vgg*%
X159004000Y-118872000D03*
%TO.P,J2,3,GND*%
%TO.N,GND*%
X156464000Y-118872000D03*
%TO.P,J2,4,BUSY*%
%TO.N,/busy*%
X153924000Y-118872000D03*
%TO.P,J2,5,DOUT*%
%TO.N,/dout*%
X151384000Y-118872000D03*
%TO.P,J2,6,X_IN*%
%TO.N,/x_in*%
X148844000Y-118872000D03*
%TO.P,J2,7,X_OUT*%
%TO.N,/x_out*%
X146304000Y-118872000D03*
%TO.P,J2,8,DIN*%
%TO.N,/din*%
X143764000Y-118872000D03*
%TO.P,J2,9,ACK*%
%TO.N,/ack*%
X141224000Y-118872000D03*
%TO.P,J2,10,SEL2*%
%TO.N,/sel2*%
X138684000Y-118872000D03*
%TO.P,J2,11,SEL1*%
%TO.N,/sel1*%
X136144000Y-118872000D03*
%TD*%
D12*
%TO.P,J1,1,Pin_1*%
%TO.N,/mt_out2*%
X165834000Y-119634000D03*
D13*
%TO.P,J1,2,Pin_2*%
%TO.N,/vgg*%
X170434000Y-119634000D03*
%TD*%
D14*
%TO.P,J5,1,Pin_1*%
%TO.N,/V_BAT*%
X175020000Y-89408000D03*
D13*
%TO.P,J5,2,Pin_2*%
%TO.N,GND*%
X170420000Y-89408000D03*
%TD*%
D15*
%TO.P,SW1,4,4*%
%TO.N,unconnected-(SW1-Pad4)*%
X182414000Y-95212000D03*
%TO.P,SW1,5,5*%
%TO.N,unconnected-(SW1-Pad5)*%
X182414000Y-92212000D03*
%TD*%
D16*
%TO.N,PA5*%
X154050500Y-104185600D03*
X151276500Y-106510300D03*
%TO.N,PA4*%
X153241000Y-103402700D03*
X149918100Y-106282000D03*
%TO.N,PA3*%
X153970700Y-103121300D03*
X148222600Y-108138600D03*
%TO.N,PA2*%
X154985700Y-102598500D03*
X150487000Y-106743300D03*
%TO.N,PA0*%
X155773600Y-101605300D03*
X141384500Y-107684700D03*
X142562200Y-107327800D03*
%TO.N,SD_CS*%
X153994600Y-105786000D03*
X156977900Y-95693100D03*
%TO.N,SPI1_MOSI*%
X157338000Y-95296900D03*
X154204100Y-105037500D03*
%TO.N,SPI1_SCK*%
X156464500Y-92285800D03*
X146612300Y-89421600D03*
%TO.N,/BOOT0*%
X160648900Y-103414500D03*
X164714200Y-98206300D03*
%TO.N,SWCLK*%
X159742600Y-107783400D03*
X172774500Y-113622200D03*
%TO.N,SWDIO*%
X159192800Y-108332500D03*
X165091100Y-110463300D03*
D17*
%TO.N,/V_BAT*%
X168225100Y-104429900D03*
D16*
%TO.N,USB_D-*%
X158692600Y-108583900D03*
X181995700Y-103840000D03*
%TO.N,USB_D+*%
X158338900Y-108215100D03*
X180269400Y-104620200D03*
X158811800Y-109887600D03*
%TO.N,+5V*%
X182026800Y-102921000D03*
X176807500Y-104596900D03*
%TO.N,VPP*%
X170434000Y-100678000D03*
X163940100Y-113421100D03*
X169680400Y-95614000D03*
%TO.N,Net-(D1-Pad1)*%
X170493300Y-112762000D03*
X170493300Y-114662900D03*
%TO.N,+3V3*%
X159640700Y-102598500D03*
X160214900Y-97898400D03*
X160079500Y-93996200D03*
X156739100Y-92961400D03*
X160721300Y-99291300D03*
X154898500Y-107340700D03*
X154948100Y-110130500D03*
%TO.N,GND*%
X159967000Y-91039200D03*
X170905400Y-93849100D03*
X158186600Y-112281000D03*
%TD*%
D18*
%TO.N,PA5*%
X151725800Y-106510300D02*
X151276500Y-106510300D01*
X154050500Y-104185600D02*
X151725800Y-106510300D01*
%TO.N,PA4*%
X152797400Y-103402700D02*
X153241000Y-103402700D01*
X149918100Y-106282000D02*
X152797400Y-103402700D01*
%TO.N,PA3*%
X148596400Y-108138600D02*
X148222600Y-108138600D01*
X152943400Y-103791600D02*
X148596400Y-108138600D01*
X153355900Y-103791600D02*
X152943400Y-103791600D01*
X153970700Y-103176800D02*
X153355900Y-103791600D01*
X153970700Y-103121300D02*
X153970700Y-103176800D01*
%TO.N,PA2*%
X154985700Y-102629000D02*
X154985700Y-102598500D01*
X151456500Y-106158200D02*
X154985700Y-102629000D01*
X151072100Y-106158200D02*
X151456500Y-106158200D01*
X150487000Y-106743300D02*
X151072100Y-106158200D01*
%TO.N,PA0*%
X142205300Y-107684700D02*
X142562200Y-107327800D01*
X141384500Y-107684700D02*
X142205300Y-107684700D01*
X148284700Y-101605300D02*
X142562200Y-107327800D01*
X155773600Y-101605300D02*
X148284700Y-101605300D01*
%TO.N,SD_CS*%
X153847700Y-105639100D02*
X153994600Y-105786000D01*
X153847700Y-104884100D02*
X153847700Y-105639100D01*
X156977900Y-101753900D02*
X153847700Y-104884100D01*
X156977900Y-95693100D02*
X156977900Y-101753900D01*
%TO.N,SPI1_MOSI*%
X157338000Y-101903600D02*
X157338000Y-95296900D01*
X154204100Y-105037500D02*
X157338000Y-101903600D01*
%TO.N,SPI1_SCK*%
X149476500Y-92285800D02*
X146612300Y-89421600D01*
X156464500Y-92285800D02*
X149476500Y-92285800D01*
%TO.N,/BOOT0*%
X160648900Y-102271600D02*
X164714200Y-98206300D01*
X160648900Y-103414500D02*
X160648900Y-102271600D01*
%TO.N,SWCLK*%
X166935700Y-107783400D02*
X172774500Y-113622200D01*
X159742600Y-107783400D02*
X166935700Y-107783400D01*
%TO.N,SWDIO*%
X162960300Y-108332500D02*
X159192800Y-108332500D01*
X165091100Y-110463300D02*
X162960300Y-108332500D01*
D19*
%TO.N,/V_BAT*%
X175020000Y-97635000D02*
X168225100Y-104429900D01*
X175020000Y-89408000D02*
X175020000Y-97635000D01*
D18*
%TO.N,USB_D-*%
X158692600Y-108316200D02*
X158692600Y-108583900D01*
X159962600Y-107046200D02*
X158692600Y-108316200D01*
X178789500Y-107046200D02*
X159962600Y-107046200D01*
X181995700Y-103840000D02*
X178789500Y-107046200D01*
%TO.N,USB_D+*%
X161318100Y-105235900D02*
X158338900Y-108215100D01*
X179653700Y-105235900D02*
X161318100Y-105235900D01*
X180269400Y-104620200D02*
X179653700Y-105235900D01*
X158338900Y-109414700D02*
X158811800Y-109887600D01*
X158338900Y-108215100D02*
X158338900Y-109414700D01*
D20*
%TO.N,+5V*%
X178483400Y-102921000D02*
X182026800Y-102921000D01*
X176807500Y-104596900D02*
X178483400Y-102921000D01*
%TO.N,VPP*%
X169680400Y-95614000D02*
X169680400Y-100051500D01*
X169807500Y-100051500D02*
X169680400Y-100051500D01*
X170434000Y-100678000D02*
X169807500Y-100051500D01*
X161632400Y-113421100D02*
X163940100Y-113421100D01*
X157813000Y-109601700D02*
X161632400Y-113421100D01*
X157813000Y-107964600D02*
X157813000Y-109601700D01*
X165726100Y-100051500D02*
X157813000Y-107964600D01*
X169680400Y-100051500D02*
X165726100Y-100051500D01*
D18*
%TO.N,Net-(D1-Pad1)*%
X170493300Y-114662900D02*
X170493300Y-112762000D01*
D20*
%TO.N,+3V3*%
X160214900Y-94131600D02*
X160079500Y-93996200D01*
X160214900Y-97898400D02*
X160214900Y-94131600D01*
X157773900Y-93996200D02*
X156739100Y-92961400D01*
X160079500Y-93996200D02*
X157773900Y-93996200D01*
X160229700Y-99291300D02*
X160721300Y-99291300D01*
X160214900Y-99276500D02*
X160229700Y-99291300D01*
X160214900Y-97898400D02*
X160214900Y-99276500D01*
X160229700Y-102009500D02*
X159640700Y-102598500D01*
X160229700Y-99291300D02*
X160229700Y-102009500D01*
X154898500Y-107340700D02*
X159640700Y-102598500D01*
X154948100Y-107390300D02*
X154948100Y-110130500D01*
X154898500Y-107340700D02*
X154948100Y-107390300D01*
%TO.N,GND*%
X170420000Y-90411200D02*
X169792000Y-91039200D01*
X170420000Y-89408000D02*
X170420000Y-90411200D01*
X169792000Y-91039200D02*
X159967000Y-91039200D01*
X158186600Y-115999100D02*
X158186600Y-112281000D01*
X156464000Y-117721700D02*
X158186600Y-115999100D01*
X156464000Y-118872000D02*
X156464000Y-117721700D01*
X170905400Y-92152600D02*
X170905400Y-93849100D01*
X169792000Y-91039200D02*
X170905400Y-92152600D01*
%TD*%
M02*
