M48
; DRILL file {KiCad 7.0.5} date Tue Oct 10 15:45:55 2023
; FORMAT={-:-/ absolute / inch / decimal}
; #@! TF.CreationDate,2023-10-10T15:45:55+02:00
; #@! TF.GenerationSoftware,Kicad,Pcbnew,7.0.5
; #@! TF.FileFunction,Plated,1,2,PTH
FMAT,2
INCH
; #@! TA.AperFunction,Plated,PTH,ViaDrill
T1C0.0079
; #@! TA.AperFunction,Plated,PTH,ViaDrill
T2C0.0236
; #@! TA.AperFunction,Plated,PTH,ComponentDrill
T3C0.0335
; #@! TA.AperFunction,Plated,PTH,ComponentDrill
T4C0.0394
; #@! TA.AperFunction,Plated,PTH,ComponentDrill
T5C0.0433
%
G90
G05
T1
X5.5663Y-4.2396
X5.6127Y-4.2255
X5.7721Y-3.5205
X5.8355Y-4.2574
X5.9023Y-4.1843
X5.9247Y-4.2025
X5.9558Y-4.1933
X6.0331Y-4.071
X6.0618Y-4.0599
X6.0628Y-4.1648
X6.065Y-4.1018
X6.071Y-4.1353
X6.0984Y-4.226
X6.1003Y-4.3358
X6.1018Y-4.0393
X6.1328Y-4.0002
X6.16Y-3.6333
X6.1708Y-3.6599
X6.1802Y-3.7674
X6.1944Y-3.7518
X6.2278Y-4.4205
X6.2338Y-4.2604
X6.2477Y-4.275
X6.2524Y-4.3263
X6.2674Y-4.2651
X6.2851Y-4.0393
X6.2891Y-4.2434
X6.2979Y-3.5842
X6.3023Y-3.7006
X6.3077Y-3.8543
X6.3248Y-4.0714
X6.3276Y-3.9091
X6.4543Y-4.4654
X6.4848Y-3.8664
X6.4996Y-4.3489
X6.6803Y-3.7643
X6.71Y-3.9637
X6.7123Y-4.4394
X6.7123Y-4.5143
X6.7286Y-3.6948
X6.8021Y-4.4733
X6.9609Y-4.118
X7.0972Y-4.1189
X7.1652Y-4.0882
X7.1664Y-4.052
T2
X6.623Y-4.1114
T3
X7.1817Y-3.6304
X7.1817Y-3.7485
T4
X5.36Y-4.68
X5.46Y-4.68
X5.56Y-4.68
X5.66Y-4.68
X5.76Y-4.68
X5.86Y-4.68
X5.96Y-4.68
X6.06Y-4.68
X6.16Y-4.68
X6.26Y-4.68
X6.36Y-4.68
T5
X6.5289Y-4.71
X6.7094Y-3.52
X6.71Y-4.71
X6.8906Y-3.52
T0
M30
