%TF.GenerationSoftware,KiCad,Pcbnew,7.0.5*%
%TF.CreationDate,2023-10-10T15:43:22+02:00*%
%TF.ProjectId,sharp-ce140f-emul_v2,73686172-702d-4636-9531-3430662d656d,rev?*%
%TF.SameCoordinates,Original*%
%TF.FileFunction,Copper,L1,Top*%
%TF.FilePolarity,Positive*%
%FSLAX46Y46*%
G04 Gerber Fmt 4.6, Leading zero omitted, Abs format (unit mm)*
G04 Created by KiCad (PCBNEW 7.0.5) date 2023-10-10 15:43:22*
%MOMM*%
%LPD*%
G01*
G04 APERTURE LIST*
G04 Aperture macros list*
%AMRoundRect*
0 Rectangle with rounded corners*
0 $1 Rounding radius*
0 $2 $3 $4 $5 $6 $7 $8 $9 X,Y pos of 4 corners*
0 Add a 4 corners polygon primitive as box body*
4,1,4,$2,$3,$4,$5,$6,$7,$8,$9,$2,$3,0*
0 Add four circle primitives for the rounded corners*
1,1,$1+$1,$2,$3*
1,1,$1+$1,$4,$5*
1,1,$1+$1,$6,$7*
1,1,$1+$1,$8,$9*
0 Add four rect primitives between the rounded corners*
20,1,$1+$1,$2,$3,$4,$5,0*
20,1,$1+$1,$4,$5,$6,$7,0*
20,1,$1+$1,$6,$7,$8,$9,0*
20,1,$1+$1,$8,$9,$2,$3,0*%
%AMFreePoly0*
4,1,19,0.500000,-0.750000,0.000000,-0.750000,0.000000,-0.744911,-0.071157,-0.744911,-0.207708,-0.704816,-0.327430,-0.627875,-0.420627,-0.520320,-0.479746,-0.390866,-0.500000,-0.250000,-0.500000,0.250000,-0.479746,0.390866,-0.420627,0.520320,-0.327430,0.627875,-0.207708,0.704816,-0.071157,0.744911,0.000000,0.744911,0.000000,0.750000,0.500000,0.750000,0.500000,-0.750000,0.500000,-0.750000,
$1*%
%AMFreePoly1*
4,1,19,0.000000,0.744911,0.071157,0.744911,0.207708,0.704816,0.327430,0.627875,0.420627,0.520320,0.479746,0.390866,0.500000,0.250000,0.500000,-0.250000,0.479746,-0.390866,0.420627,-0.520320,0.327430,-0.627875,0.207708,-0.704816,0.071157,-0.744911,0.000000,-0.744911,0.000000,-0.750000,-0.500000,-0.750000,-0.500000,0.750000,0.000000,0.750000,0.000000,0.744911,0.000000,0.744911,
$1*%
G04 Aperture macros list end*
%TA.AperFunction,SMDPad,CuDef*%
%ADD10RoundRect,0.225000X-0.250000X0.225000X-0.250000X-0.225000X0.250000X-0.225000X0.250000X0.225000X0*%
%TD*%
%TA.AperFunction,SMDPad,CuDef*%
%ADD11RoundRect,0.140000X-0.140000X-0.170000X0.140000X-0.170000X0.140000X0.170000X-0.140000X0.170000X0*%
%TD*%
%TA.AperFunction,SMDPad,CuDef*%
%ADD12RoundRect,0.140000X0.170000X-0.140000X0.170000X0.140000X-0.170000X0.140000X-0.170000X-0.140000X0*%
%TD*%
%TA.AperFunction,SMDPad,CuDef*%
%ADD13RoundRect,0.140000X-0.170000X0.140000X-0.170000X-0.140000X0.170000X-0.140000X0.170000X0.140000X0*%
%TD*%
%TA.AperFunction,SMDPad,CuDef*%
%ADD14RoundRect,0.225000X-0.225000X-0.250000X0.225000X-0.250000X0.225000X0.250000X-0.225000X0.250000X0*%
%TD*%
%TA.AperFunction,SMDPad,CuDef*%
%ADD15RoundRect,0.218750X0.218750X0.256250X-0.218750X0.256250X-0.218750X-0.256250X0.218750X-0.256250X0*%
%TD*%
%TA.AperFunction,SMDPad,CuDef*%
%ADD16RoundRect,0.218750X-0.218750X-0.256250X0.218750X-0.256250X0.218750X0.256250X-0.218750X0.256250X0*%
%TD*%
%TA.AperFunction,SMDPad,CuDef*%
%ADD17RoundRect,0.218750X-0.218750X-0.381250X0.218750X-0.381250X0.218750X0.381250X-0.218750X0.381250X0*%
%TD*%
%TA.AperFunction,ComponentPad*%
%ADD18R,1.700000X1.700000*%
%TD*%
%TA.AperFunction,ComponentPad*%
%ADD19O,1.700000X1.700000*%
%TD*%
%TA.AperFunction,SMDPad,CuDef*%
%ADD20FreePoly0,180.000000*%
%TD*%
%TA.AperFunction,SMDPad,CuDef*%
%ADD21FreePoly1,180.000000*%
%TD*%
%TA.AperFunction,SMDPad,CuDef*%
%ADD22RoundRect,0.147500X-0.172500X0.147500X-0.172500X-0.147500X0.172500X-0.147500X0.172500X0.147500X0*%
%TD*%
%TA.AperFunction,SMDPad,CuDef*%
%ADD23RoundRect,0.135000X-0.185000X0.135000X-0.185000X-0.135000X0.185000X-0.135000X0.185000X0.135000X0*%
%TD*%
%TA.AperFunction,SMDPad,CuDef*%
%ADD24RoundRect,0.200000X0.200000X0.275000X-0.200000X0.275000X-0.200000X-0.275000X0.200000X-0.275000X0*%
%TD*%
%TA.AperFunction,SMDPad,CuDef*%
%ADD25RoundRect,0.100000X-0.100000X0.637500X-0.100000X-0.637500X0.100000X-0.637500X0.100000X0.637500X0*%
%TD*%
%TA.AperFunction,SMDPad,CuDef*%
%ADD26R,2.400000X2.000000*%
%TD*%
%TA.AperFunction,ComponentPad*%
%ADD27RoundRect,0.250001X-0.799999X-0.799999X0.799999X-0.799999X0.799999X0.799999X-0.799999X0.799999X0*%
%TD*%
%TA.AperFunction,ComponentPad*%
%ADD28C,2.100000*%
%TD*%
%TA.AperFunction,SMDPad,CuDef*%
%ADD29R,1.380000X0.450000*%
%TD*%
%TA.AperFunction,SMDPad,CuDef*%
%ADD30R,1.300000X1.650000*%
%TD*%
%TA.AperFunction,SMDPad,CuDef*%
%ADD31R,1.550000X1.425000*%
%TD*%
%TA.AperFunction,SMDPad,CuDef*%
%ADD32R,1.900000X1.800000*%
%TD*%
%TA.AperFunction,SMDPad,CuDef*%
%ADD33R,1.900000X1.000000*%
%TD*%
%TA.AperFunction,SMDPad,CuDef*%
%ADD34RoundRect,0.135000X-0.135000X-0.185000X0.135000X-0.185000X0.135000X0.185000X-0.135000X0.185000X0*%
%TD*%
%TA.AperFunction,SMDPad,CuDef*%
%ADD35FreePoly0,0.000000*%
%TD*%
%TA.AperFunction,SMDPad,CuDef*%
%ADD36FreePoly1,0.000000*%
%TD*%
%TA.AperFunction,ComponentPad*%
%ADD37RoundRect,0.250001X0.799999X0.799999X-0.799999X0.799999X-0.799999X-0.799999X0.799999X-0.799999X0*%
%TD*%
%TA.AperFunction,SMDPad,CuDef*%
%ADD38RoundRect,0.135000X0.135000X0.185000X-0.135000X0.185000X-0.135000X-0.185000X0.135000X-0.185000X0*%
%TD*%
%TA.AperFunction,SMDPad,CuDef*%
%ADD39RoundRect,0.150000X-0.587500X-0.150000X0.587500X-0.150000X0.587500X0.150000X-0.587500X0.150000X0*%
%TD*%
%TA.AperFunction,SMDPad,CuDef*%
%ADD40R,1.200000X1.000000*%
%TD*%
%TA.AperFunction,ComponentPad*%
%ADD41C,1.381000*%
%TD*%
%TA.AperFunction,SMDPad,CuDef*%
%ADD42RoundRect,0.200000X-0.200000X-0.275000X0.200000X-0.275000X0.200000X0.275000X-0.200000X0.275000X0*%
%TD*%
%TA.AperFunction,SMDPad,CuDef*%
%ADD43RoundRect,0.062500X-0.062500X0.375000X-0.062500X-0.375000X0.062500X-0.375000X0.062500X0.375000X0*%
%TD*%
%TA.AperFunction,SMDPad,CuDef*%
%ADD44RoundRect,0.062500X-0.375000X0.062500X-0.375000X-0.062500X0.375000X-0.062500X0.375000X0.062500X0*%
%TD*%
%TA.AperFunction,SMDPad,CuDef*%
%ADD45R,3.450000X3.450000*%
%TD*%
%TA.AperFunction,SMDPad,CuDef*%
%ADD46R,0.850000X1.100000*%
%TD*%
%TA.AperFunction,SMDPad,CuDef*%
%ADD47R,0.750000X1.100000*%
%TD*%
%TA.AperFunction,SMDPad,CuDef*%
%ADD48R,1.170000X1.800000*%
%TD*%
%TA.AperFunction,SMDPad,CuDef*%
%ADD49R,1.900000X1.350000*%
%TD*%
%TA.AperFunction,SMDPad,CuDef*%
%ADD50R,1.550000X1.350000*%
%TD*%
%TA.AperFunction,SMDPad,CuDef*%
%ADD51R,2.400000X0.740000*%
%TD*%
%TA.AperFunction,SMDPad,CuDef*%
%ADD52RoundRect,0.150000X-0.512500X-0.150000X0.512500X-0.150000X0.512500X0.150000X-0.512500X0.150000X0*%
%TD*%
%TA.AperFunction,ViaPad*%
%ADD53C,0.400000*%
%TD*%
%TA.AperFunction,ViaPad*%
%ADD54C,1.000000*%
%TD*%
%TA.AperFunction,Conductor*%
%ADD55C,0.100000*%
%TD*%
%TA.AperFunction,Conductor*%
%ADD56C,0.200000*%
%TD*%
%TA.AperFunction,Conductor*%
%ADD57C,0.800000*%
%TD*%
G04 APERTURE END LIST*
%TA.AperFunction,EtchedComponent*%
%TO.C,JP2*%
G36*
X164334000Y-112568000D02*
G01*
X163834000Y-112568000D01*
X163834000Y-111968000D01*
X164334000Y-111968000D01*
X164334000Y-112568000D01*
G37*
%TD.AperFunction*%
%TD*%
D10*
%TO.P,C1,1*%
%TO.N,+3V3*%
X156210000Y-110731000D03*
%TO.P,C1,2*%
%TO.N,GND*%
X156210000Y-112281000D03*
%TD*%
D11*
%TO.P,C2,1*%
%TO.N,/HSE_IN*%
X163604000Y-109728000D03*
%TO.P,C2,2*%
%TO.N,GND*%
X164564000Y-109728000D03*
%TD*%
D12*
%TO.P,C3,1*%
%TO.N,+3V3*%
X159998000Y-99928000D03*
%TO.P,C3,2*%
%TO.N,GND*%
X159998000Y-98968000D03*
%TD*%
%TO.P,C4,1*%
%TO.N,+3V3*%
X151892000Y-107414000D03*
%TO.P,C4,2*%
%TO.N,GND*%
X151892000Y-106454000D03*
%TD*%
D13*
%TO.P,C5,1*%
%TO.N,+3V3*%
X154178000Y-110518000D03*
%TO.P,C5,2*%
%TO.N,GND*%
X154178000Y-111478000D03*
%TD*%
D11*
%TO.P,C6,1*%
%TO.N,/HSE_OUT*%
X163604000Y-100330000D03*
%TO.P,C6,2*%
%TO.N,GND*%
X164564000Y-100330000D03*
%TD*%
D13*
%TO.P,C7,1*%
%TO.N,/vccb*%
X151780000Y-110518000D03*
%TO.P,C7,2*%
%TO.N,GND*%
X151780000Y-111478000D03*
%TD*%
D14*
%TO.P,C10,1*%
%TO.N,VPP*%
X169684500Y-94728000D03*
%TO.P,C10,2*%
%TO.N,GND*%
X171234500Y-94728000D03*
%TD*%
%TO.P,C11,1*%
%TO.N,/V_BAT*%
X169659000Y-107936000D03*
%TO.P,C11,2*%
%TO.N,GND*%
X171209000Y-107936000D03*
%TD*%
D15*
%TO.P,D1,1,K*%
%TO.N,Net-(D1-Pad1)*%
X171221500Y-115302000D03*
%TO.P,D1,2,A*%
%TO.N,/usr_led*%
X169646500Y-115302000D03*
%TD*%
D16*
%TO.P,D2,1,K*%
%TO.N,Net-(D2-Pad1)*%
X173964500Y-102602000D03*
%TO.P,D2,2,A*%
%TO.N,VPP*%
X175539500Y-102602000D03*
%TD*%
D17*
%TO.P,FB1,1*%
%TO.N,VPP*%
X173943500Y-105396000D03*
%TO.P,FB1,2*%
%TO.N,+5V*%
X176068500Y-105396000D03*
%TD*%
D18*
%TO.P,J2,1,MT_OUT2*%
%TO.N,/mt_out2*%
X161544000Y-118872000D03*
D19*
%TO.P,J2,2,VGG*%
%TO.N,/vgg*%
X159004000Y-118872000D03*
%TO.P,J2,3,GND*%
%TO.N,GND*%
X156464000Y-118872000D03*
%TO.P,J2,4,BUSY*%
%TO.N,/busy*%
X153924000Y-118872000D03*
%TO.P,J2,5,DOUT*%
%TO.N,/dout*%
X151384000Y-118872000D03*
%TO.P,J2,6,X_IN*%
%TO.N,/x_in*%
X148844000Y-118872000D03*
%TO.P,J2,7,X_OUT*%
%TO.N,/x_out*%
X146304000Y-118872000D03*
%TO.P,J2,8,DIN*%
%TO.N,/din*%
X143764000Y-118872000D03*
%TO.P,J2,9,ACK*%
%TO.N,/ack*%
X141224000Y-118872000D03*
%TO.P,J2,10,SEL2*%
%TO.N,/sel2*%
X138684000Y-118872000D03*
%TO.P,J2,11,SEL1*%
%TO.N,/sel1*%
X136144000Y-118872000D03*
%TD*%
D20*
%TO.P,JP1,1,A*%
%TO.N,/BOOT0*%
X164988000Y-97028000D03*
D21*
%TO.P,JP1,2,B*%
%TO.N,+3V3*%
X163688000Y-97028000D03*
%TD*%
D22*
%TO.P,L1,1*%
%TO.N,+3V3*%
X154806000Y-98963000D03*
%TO.P,L1,2*%
%TO.N,+3.3VA*%
X154806000Y-99933000D03*
%TD*%
D23*
%TO.P,R1,1*%
%TO.N,/BOOT0*%
X160020000Y-110488000D03*
%TO.P,R1,2*%
%TO.N,GND*%
X160020000Y-111508000D03*
%TD*%
%TO.P,R2,1*%
%TO.N,GND*%
X140718000Y-106424000D03*
%TO.P,R2,2*%
%TO.N,PA0*%
X140718000Y-107444000D03*
%TD*%
D24*
%TO.P,R3,1*%
%TO.N,Net-(D1-Pad1)*%
X171259000Y-112762000D03*
%TO.P,R3,2*%
%TO.N,GND*%
X169609000Y-112762000D03*
%TD*%
D25*
%TO.P,U1,1,A1*%
%TO.N,PA2*%
X149229000Y-107119500D03*
%TO.P,U1,2,VCCA*%
%TO.N,+3V3*%
X148579000Y-107119500D03*
%TO.P,U1,3,A2*%
%TO.N,PA3*%
X147929000Y-107119500D03*
%TO.P,U1,4,A3*%
%TO.N,PA4*%
X147279000Y-107119500D03*
%TO.P,U1,5,A4*%
%TO.N,PA5*%
X146629000Y-107119500D03*
%TO.P,U1,6,A5*%
%TO.N,PA8*%
X145979000Y-107119500D03*
%TO.P,U1,7,A6*%
%TO.N,PA9*%
X145329000Y-107119500D03*
%TO.P,U1,8,A7*%
%TO.N,PA10*%
X144679000Y-107119500D03*
%TO.P,U1,9,A8*%
%TO.N,PA15*%
X144029000Y-107119500D03*
%TO.P,U1,10,OE*%
%TO.N,PA0*%
X143379000Y-107119500D03*
%TO.P,U1,11,GND*%
%TO.N,GND*%
X143379000Y-112844500D03*
%TO.P,U1,12,B8*%
%TO.N,/sel1*%
X144029000Y-112844500D03*
%TO.P,U1,13,B7*%
%TO.N,/sel2*%
X144679000Y-112844500D03*
%TO.P,U1,14,B6*%
%TO.N,/ack*%
X145329000Y-112844500D03*
%TO.P,U1,15,B5*%
%TO.N,/din*%
X145979000Y-112844500D03*
%TO.P,U1,16,B4*%
%TO.N,/x_out*%
X146629000Y-112844500D03*
%TO.P,U1,17,B3*%
%TO.N,/x_in*%
X147279000Y-112844500D03*
%TO.P,U1,18,B2*%
%TO.N,/dout*%
X147929000Y-112844500D03*
%TO.P,U1,19,VCCB*%
%TO.N,/vccb*%
X148579000Y-112844500D03*
%TO.P,U1,20,B1*%
%TO.N,/busy*%
X149229000Y-112844500D03*
%TD*%
D26*
%TO.P,Y1,1,1*%
%TO.N,/HSE_IN*%
X164084000Y-107006000D03*
%TO.P,Y1,2,2*%
%TO.N,/HSE_OUT*%
X164084000Y-103306000D03*
%TD*%
D27*
%TO.P,J1,1,Pin_1*%
%TO.N,/mt_out2*%
X165834000Y-119634000D03*
D28*
%TO.P,J1,2,Pin_2*%
%TO.N,/vgg*%
X170434000Y-119634000D03*
%TD*%
D23*
%TO.P,R4,1*%
%TO.N,+3V3*%
X158242000Y-110488000D03*
%TO.P,R4,2*%
%TO.N,USB_D+*%
X158242000Y-111508000D03*
%TD*%
D29*
%TO.P,J3,1,VBUS*%
%TO.N,+5V*%
X183324000Y-103066000D03*
%TO.P,J3,2,D-*%
%TO.N,USB_D-*%
X183324000Y-103716000D03*
%TO.P,J3,3,D+*%
%TO.N,USB_D+*%
X183324000Y-104366000D03*
%TO.P,J3,4,ID*%
%TO.N,unconnected-(J3-Pad4)*%
X183324000Y-105016000D03*
%TO.P,J3,5,GND*%
%TO.N,GND*%
X183324000Y-105666000D03*
D30*
%TO.P,J3,6,Shield*%
%TO.N,unconnected-(J3-Pad6)*%
X180664000Y-100991000D03*
D31*
X183239000Y-106853500D03*
D32*
X180664000Y-103216000D03*
D33*
X180664000Y-105916000D03*
D31*
X183239000Y-101878500D03*
D30*
X180664000Y-107741000D03*
%TD*%
D34*
%TO.P,R16,1*%
%TO.N,SWO*%
X173480000Y-119126000D03*
%TO.P,R16,2*%
%TO.N,Net-(J6-Pad6)*%
X174500000Y-119126000D03*
%TD*%
D35*
%TO.P,JP2,1,A*%
%TO.N,/vccb*%
X163434000Y-112268000D03*
D36*
%TO.P,JP2,2,B*%
%TO.N,VPP*%
X164734000Y-112268000D03*
%TD*%
D24*
%TO.P,R7,1*%
%TO.N,Net-(D3-Pad2)*%
X171259000Y-100316000D03*
%TO.P,R7,2*%
%TO.N,Net-(R6-Pad2)*%
X169609000Y-100316000D03*
%TD*%
D37*
%TO.P,J5,1,Pin_1*%
%TO.N,/V_BAT*%
X175020000Y-89408000D03*
D28*
%TO.P,J5,2,Pin_2*%
%TO.N,GND*%
X170420000Y-89408000D03*
%TD*%
D11*
%TO.P,C13,1*%
%TO.N,+3V3*%
X158898000Y-90304000D03*
%TO.P,C13,2*%
%TO.N,GND*%
X159858000Y-90304000D03*
%TD*%
D38*
%TO.P,R9,1*%
%TO.N,+3V3*%
X155798000Y-92336000D03*
%TO.P,R9,2*%
%TO.N,SPI1_MOSI*%
X154778000Y-92336000D03*
%TD*%
D12*
%TO.P,C8,1*%
%TO.N,+3.3VA*%
X158220000Y-99928000D03*
%TO.P,C8,2*%
%TO.N,GND*%
X158220000Y-98968000D03*
%TD*%
D14*
%TO.P,C14,1*%
%TO.N,+3V3*%
X169646000Y-105396000D03*
%TO.P,C14,2*%
%TO.N,GND*%
X171196000Y-105396000D03*
%TD*%
D38*
%TO.P,R10,1*%
%TO.N,+3V3*%
X159888000Y-94876000D03*
%TO.P,R10,2*%
%TO.N,SPI1_SCK*%
X158868000Y-94876000D03*
%TD*%
D39*
%TO.P,U5,1,GND*%
%TO.N,GND*%
X174068500Y-92776000D03*
%TO.P,U5,2,VO*%
%TO.N,+3V3*%
X174068500Y-94676000D03*
%TO.P,U5,3,VI*%
%TO.N,VCC*%
X175943500Y-93726000D03*
%TD*%
D40*
%TO.P,SW1,1,1*%
%TO.N,unconnected-(SW1-Pad1)*%
X179814000Y-96212000D03*
%TO.P,SW1,2,2*%
%TO.N,VCC*%
X179814000Y-93712000D03*
%TO.P,SW1,3,3*%
%TO.N,/V_BAT*%
X179814000Y-91212000D03*
D41*
%TO.P,SW1,4,4*%
%TO.N,unconnected-(SW1-Pad4)*%
X182414000Y-95212000D03*
%TO.P,SW1,5,5*%
%TO.N,unconnected-(SW1-Pad5)*%
X182414000Y-92212000D03*
%TD*%
D15*
%TO.P,D3,1,K*%
%TO.N,GND*%
X175539500Y-100316000D03*
%TO.P,D3,2,A*%
%TO.N,Net-(D3-Pad2)*%
X173964500Y-100316000D03*
%TD*%
D34*
%TO.P,R13,1*%
%TO.N,SWDIO*%
X173480000Y-116332000D03*
%TO.P,R13,2*%
%TO.N,Net-(J6-Pad2)*%
X174500000Y-116332000D03*
%TD*%
D38*
%TO.P,R8,1*%
%TO.N,+3V3*%
X155796000Y-94876000D03*
%TO.P,R8,2*%
%TO.N,SD_CS*%
X154776000Y-94876000D03*
%TD*%
D34*
%TO.P,R15,1*%
%TO.N,SWCLK*%
X173480000Y-114046000D03*
%TO.P,R15,2*%
%TO.N,Net-(J6-Pad4)*%
X174500000Y-114046000D03*
%TD*%
D42*
%TO.P,R12,1*%
%TO.N,Net-(D4-Pad1)*%
X169609000Y-97776000D03*
%TO.P,R12,2*%
%TO.N,GND*%
X171259000Y-97776000D03*
%TD*%
D35*
%TO.P,JP3,1,A*%
%TO.N,/vccb*%
X163434000Y-115570000D03*
D36*
%TO.P,JP3,2,B*%
%TO.N,/vgg*%
X164734000Y-115570000D03*
%TD*%
D43*
%TO.P,U2,1,VDD*%
%TO.N,+3V3*%
X159096000Y-102598500D03*
%TO.P,U2,2,PC14*%
%TO.N,/HSE_IN*%
X158596000Y-102598500D03*
%TO.P,U2,3,PC15*%
%TO.N,/HSE_OUT*%
X158096000Y-102598500D03*
%TO.P,U2,4,NRST*%
%TO.N,unconnected-(U2-Pad4)*%
X157596000Y-102598500D03*
%TO.P,U2,5,VDDA*%
%TO.N,+3.3VA*%
X157096000Y-102598500D03*
%TO.P,U2,6,PA0*%
%TO.N,PA0*%
X156596000Y-102598500D03*
%TO.P,U2,7,PA1*%
%TO.N,SPI1_SCK*%
X156096000Y-102598500D03*
%TO.P,U2,8,PA2*%
%TO.N,PA2*%
X155596000Y-102598500D03*
D44*
%TO.P,U2,9,PA3*%
%TO.N,PA3*%
X154908500Y-103286000D03*
%TO.P,U2,10,PA4*%
%TO.N,PA4*%
X154908500Y-103786000D03*
%TO.P,U2,11,PA5*%
%TO.N,PA5*%
X154908500Y-104286000D03*
%TO.P,U2,12,PA6*%
%TO.N,SPI1_MISO*%
X154908500Y-104786000D03*
%TO.P,U2,13,PA7*%
%TO.N,SPI1_MOSI*%
X154908500Y-105286000D03*
%TO.P,U2,14,PB0*%
%TO.N,SD_CS*%
X154908500Y-105786000D03*
%TO.P,U2,15,PB1*%
%TO.N,SD_CD*%
X154908500Y-106286000D03*
%TO.P,U2,16,VSS*%
%TO.N,GND*%
X154908500Y-106786000D03*
D43*
%TO.P,U2,17,VDD*%
%TO.N,+3V3*%
X155596000Y-107473500D03*
%TO.P,U2,18,PA8*%
%TO.N,PA8*%
X156096000Y-107473500D03*
%TO.P,U2,19,PA9*%
%TO.N,PA9*%
X156596000Y-107473500D03*
%TO.P,U2,20,PA10*%
%TO.N,PA10*%
X157096000Y-107473500D03*
%TO.P,U2,21,PA11*%
%TO.N,USB_D-*%
X157596000Y-107473500D03*
%TO.P,U2,22,PA12*%
%TO.N,USB_D+*%
X158096000Y-107473500D03*
%TO.P,U2,23,PA13*%
%TO.N,SWDIO*%
X158596000Y-107473500D03*
%TO.P,U2,24,PA14*%
%TO.N,SWCLK*%
X159096000Y-107473500D03*
D44*
%TO.P,U2,25,PA15*%
%TO.N,PA15*%
X159783500Y-106786000D03*
%TO.P,U2,26,PB3*%
%TO.N,SWO*%
X159783500Y-106286000D03*
%TO.P,U2,27,PB4*%
%TO.N,/usr_led*%
X159783500Y-105786000D03*
%TO.P,U2,28,PB5*%
%TO.N,PB5*%
X159783500Y-105286000D03*
%TO.P,U2,29,PB6*%
%TO.N,PB6*%
X159783500Y-104786000D03*
%TO.P,U2,30,PB7*%
%TO.N,PB7*%
X159783500Y-104286000D03*
%TO.P,U2,31,PH3*%
%TO.N,/BOOT0*%
X159783500Y-103786000D03*
%TO.P,U2,32,VSS*%
%TO.N,GND*%
X159783500Y-103286000D03*
D45*
%TO.P,U2,33,VSS*%
X157346000Y-105036000D03*
%TD*%
D16*
%TO.P,D4,1,K*%
%TO.N,Net-(D4-Pad1)*%
X169646500Y-92696000D03*
%TO.P,D4,2,A*%
%TO.N,+3V3*%
X171221500Y-92696000D03*
%TD*%
D14*
%TO.P,C12,1*%
%TO.N,VCC*%
X173977000Y-97776000D03*
%TO.P,C12,2*%
%TO.N,GND*%
X175527000Y-97776000D03*
%TD*%
D46*
%TO.P,J4,1,DAT2*%
%TO.N,unconnected-(J4-Pad1)*%
X141929000Y-90371500D03*
%TO.P,J4,2,DAT3/CD*%
%TO.N,SD_CS*%
X143029000Y-90371500D03*
%TO.P,J4,3,CMD*%
%TO.N,SPI1_MOSI*%
X144129000Y-90371500D03*
%TO.P,J4,4,VDD*%
%TO.N,+3V3*%
X145229000Y-90371500D03*
%TO.P,J4,5,CLK*%
%TO.N,SPI1_SCK*%
X146329000Y-90371500D03*
%TO.P,J4,6,VSS*%
%TO.N,GND*%
X147429000Y-90371500D03*
%TO.P,J4,7,DAT0*%
%TO.N,SPI1_MISO*%
X148529000Y-90371500D03*
D47*
%TO.P,J4,8,DAT1*%
%TO.N,unconnected-(J4-Pad8)*%
X149579000Y-90371500D03*
D40*
%TO.P,J4,9,DET_B*%
%TO.N,unconnected-(J4-Pad9)*%
X139294000Y-96521500D03*
%TO.P,J4,10,DET_A*%
%TO.N,SD_CD*%
X139294000Y-100221500D03*
D48*
%TO.P,J4,11,SHIELD*%
%TO.N,GND*%
X150789000Y-90721500D03*
D49*
X148764000Y-101196500D03*
D50*
X139469000Y-90496500D03*
D49*
X142794000Y-101196500D03*
%TD*%
D42*
%TO.P,R5,1*%
%TO.N,Net-(R5-Pad1)*%
X169609000Y-110236000D03*
%TO.P,R5,2*%
%TO.N,GND*%
X171259000Y-110236000D03*
%TD*%
D38*
%TO.P,R11,1*%
%TO.N,+3V3*%
X159886000Y-92336000D03*
%TO.P,R11,2*%
%TO.N,SPI1_MISO*%
X158866000Y-92336000D03*
%TD*%
D51*
%TO.P,J6,1,Pin_1*%
%TO.N,+3V3*%
X178136000Y-113270000D03*
%TO.P,J6,2,Pin_2*%
%TO.N,Net-(J6-Pad2)*%
X182036000Y-113270000D03*
%TO.P,J6,3,Pin_3*%
%TO.N,GND*%
X178136000Y-114540000D03*
%TO.P,J6,4,Pin_4*%
%TO.N,Net-(J6-Pad4)*%
X182036000Y-114540000D03*
%TO.P,J6,5,Pin_5*%
%TO.N,GND*%
X178136000Y-115810000D03*
%TO.P,J6,6,Pin_6*%
%TO.N,Net-(J6-Pad6)*%
X182036000Y-115810000D03*
%TO.P,J6,7,Pin_7*%
%TO.N,unconnected-(J6-Pad7)*%
X178136000Y-117080000D03*
%TO.P,J6,8,Pin_8*%
%TO.N,unconnected-(J6-Pad8)*%
X182036000Y-117080000D03*
%TO.P,J6,9,Pin_9*%
%TO.N,GND*%
X178136000Y-118350000D03*
%TO.P,J6,10,Pin_10*%
%TO.N,unconnected-(J6-Pad10)*%
X182036000Y-118350000D03*
%TD*%
D12*
%TO.P,C9,1*%
%TO.N,+3.3VA*%
X156442000Y-99928000D03*
%TO.P,C9,2*%
%TO.N,GND*%
X156442000Y-98968000D03*
%TD*%
D24*
%TO.P,R6,1*%
%TO.N,Net-(D2-Pad1)*%
X171259000Y-102602000D03*
%TO.P,R6,2*%
%TO.N,Net-(R6-Pad2)*%
X169609000Y-102602000D03*
%TD*%
D52*
%TO.P,U4,1,STAT*%
%TO.N,Net-(R6-Pad2)*%
X173868500Y-108270000D03*
%TO.P,U4,2,VSS*%
%TO.N,GND*%
X173868500Y-109220000D03*
%TO.P,U4,3,VBAT*%
%TO.N,/V_BAT*%
X173868500Y-110170000D03*
%TO.P,U4,4,VDD*%
%TO.N,VPP*%
X176143500Y-110170000D03*
%TO.P,U4,5,PROG*%
%TO.N,Net-(R5-Pad1)*%
X176143500Y-108270000D03*
%TD*%
D53*
%TO.N,PA5*%
X154050500Y-104185600D03*
X151276500Y-106510300D03*
%TO.N,PA4*%
X153241000Y-103402700D03*
X149918100Y-106282000D03*
%TO.N,PA3*%
X153970700Y-103121300D03*
X148222600Y-108138600D03*
%TO.N,PA2*%
X154985700Y-102598500D03*
X150487000Y-106743300D03*
%TO.N,PA0*%
X155773600Y-101605300D03*
X141384500Y-107684700D03*
X142562200Y-107327800D03*
%TO.N,SD_CS*%
X153994600Y-105786000D03*
X156977900Y-95693100D03*
%TO.N,SPI1_MOSI*%
X157338000Y-95296900D03*
X154204100Y-105037500D03*
%TO.N,SPI1_SCK*%
X156464500Y-92285800D03*
X146612300Y-89421600D03*
%TO.N,/BOOT0*%
X160648900Y-103414500D03*
X164714200Y-98206300D03*
%TO.N,SWCLK*%
X159742600Y-107783400D03*
X172774500Y-113622200D03*
%TO.N,SWDIO*%
X159192800Y-108332500D03*
X165091100Y-110463300D03*
D54*
%TO.N,/V_BAT*%
X168225100Y-104429900D03*
D53*
%TO.N,USB_D-*%
X158692600Y-108583900D03*
X181995700Y-103840000D03*
%TO.N,USB_D+*%
X158338900Y-108215100D03*
X180269400Y-104620200D03*
X158811800Y-109887600D03*
%TO.N,+5V*%
X182026800Y-102921000D03*
X176807500Y-104596900D03*
%TO.N,VPP*%
X170434000Y-100678000D03*
X163940100Y-113421100D03*
X169680400Y-95614000D03*
%TO.N,Net-(D1-Pad1)*%
X170493300Y-112762000D03*
X170493300Y-114662900D03*
%TO.N,+3V3*%
X159640700Y-102598500D03*
X160214900Y-97898400D03*
X160079500Y-93996200D03*
X156739100Y-92961400D03*
X160721300Y-99291300D03*
X154898500Y-107340700D03*
X154948100Y-110130500D03*
%TO.N,GND*%
X159967000Y-91039200D03*
X170905400Y-93849100D03*
X158186600Y-112281000D03*
%TD*%
D55*
%TO.N,/sel1*%
X138920200Y-117096100D02*
X137144300Y-118872000D01*
X140229300Y-117096100D02*
X138920200Y-117096100D01*
X144029000Y-113296400D02*
X140229300Y-117096100D01*
X144029000Y-112844500D02*
X144029000Y-113296400D01*
X136144000Y-118872000D02*
X137144300Y-118872000D01*
%TO.N,SWO*%
X172428100Y-119126000D02*
X173480000Y-119126000D01*
X166216600Y-112914500D02*
X172428100Y-119126000D01*
X166216600Y-112271700D02*
X166216600Y-112914500D01*
X164983900Y-111039000D02*
X166216600Y-112271700D01*
X163615400Y-111039000D02*
X164983900Y-111039000D01*
X162549700Y-109973300D02*
X163615400Y-111039000D01*
X162549700Y-108758100D02*
X162549700Y-109973300D01*
X160077600Y-106286000D02*
X162549700Y-108758100D01*
X159783500Y-106286000D02*
X160077600Y-106286000D01*
%TO.N,Net-(J6-Pad6)*%
X182036000Y-115810000D02*
X180685700Y-115810000D01*
X180685700Y-117869700D02*
X180685700Y-115810000D01*
X179429400Y-119126000D02*
X180685700Y-117869700D01*
X174500000Y-119126000D02*
X179429400Y-119126000D01*
%TO.N,Net-(J6-Pad4)*%
X174526300Y-114019700D02*
X174500000Y-114046000D01*
X180165400Y-114019700D02*
X174526300Y-114019700D01*
X180685700Y-114540000D02*
X180165400Y-114019700D01*
X182036000Y-114540000D02*
X180685700Y-114540000D01*
%TO.N,Net-(J6-Pad2)*%
X174500000Y-116735400D02*
X174500000Y-116332000D01*
X176662600Y-118898000D02*
X174500000Y-116735400D01*
X179374200Y-118898000D02*
X176662600Y-118898000D01*
X179574400Y-118697800D02*
X179374200Y-118898000D01*
X179574400Y-116475700D02*
X179574400Y-118697800D01*
X180989700Y-115060400D02*
X179574400Y-116475700D01*
X183357300Y-115060400D02*
X180989700Y-115060400D01*
X183386300Y-115031400D02*
X183357300Y-115060400D01*
X183386300Y-113270000D02*
X183386300Y-115031400D01*
X182036000Y-113270000D02*
X183386300Y-113270000D01*
%TO.N,/usr_led*%
X165158100Y-110813600D02*
X169646500Y-115302000D01*
X164946100Y-110813600D02*
X165158100Y-110813600D01*
X164670900Y-110538400D02*
X164946100Y-110813600D01*
X163398000Y-110538400D02*
X164670900Y-110538400D01*
X162750000Y-109890400D02*
X163398000Y-110538400D01*
X162750000Y-108458500D02*
X162750000Y-109890400D01*
X160077500Y-105786000D02*
X162750000Y-108458500D01*
X159783500Y-105786000D02*
X160077500Y-105786000D01*
%TO.N,PA15*%
X160094500Y-107097000D02*
X159783500Y-106786000D01*
X160094500Y-107937400D02*
X160094500Y-107097000D01*
X158912700Y-109119200D02*
X160094500Y-107937400D01*
X145534400Y-109119200D02*
X158912700Y-109119200D01*
X144029000Y-107613800D02*
X145534400Y-109119200D01*
X144029000Y-107119500D02*
X144029000Y-107613800D01*
%TO.N,PA10*%
X144679000Y-107563500D02*
X144679000Y-107119500D01*
X146031300Y-108915800D02*
X144679000Y-107563500D01*
X155892900Y-108915800D02*
X146031300Y-108915800D01*
X157096000Y-107712700D02*
X155892900Y-108915800D01*
X157096000Y-107473500D02*
X157096000Y-107712700D01*
%TO.N,PA9*%
X145329000Y-107566700D02*
X145329000Y-107119500D01*
X146477800Y-108715500D02*
X145329000Y-107566700D01*
X155623900Y-108715500D02*
X146477800Y-108715500D01*
X156596000Y-107743400D02*
X155623900Y-108715500D01*
X156596000Y-107473500D02*
X156596000Y-107743400D01*
%TO.N,PA5*%
X154150900Y-104286000D02*
X154050500Y-104185600D01*
X154908500Y-104286000D02*
X154150900Y-104286000D01*
X150697900Y-105931700D02*
X151276500Y-106510300D01*
X147361900Y-105931700D02*
X150697900Y-105931700D01*
X146629000Y-106664600D02*
X147361900Y-105931700D01*
X146629000Y-107119500D02*
X146629000Y-106664600D01*
%TO.N,PA4*%
X147279000Y-106637100D02*
X147279000Y-107119500D01*
X147686600Y-106229500D02*
X147279000Y-106637100D01*
X149865600Y-106229500D02*
X147686600Y-106229500D01*
X149918100Y-106282000D02*
X149865600Y-106229500D01*
X153624300Y-103786000D02*
X153241000Y-103402700D01*
X154908500Y-103786000D02*
X153624300Y-103786000D01*
%TO.N,PA3*%
X147929000Y-107845000D02*
X148222600Y-108138600D01*
X147929000Y-107119500D02*
X147929000Y-107845000D01*
X154135400Y-103286000D02*
X153970700Y-103121300D01*
X154908500Y-103286000D02*
X154135400Y-103286000D01*
%TO.N,PA2*%
X149605200Y-106743300D02*
X149229000Y-107119500D01*
X150487000Y-106743300D02*
X149605200Y-106743300D01*
X155596000Y-102598500D02*
X154985700Y-102598500D01*
%TO.N,Net-(R6-Pad2)*%
X169609000Y-100316000D02*
X169609000Y-102602000D01*
X169758100Y-102602000D02*
X169609000Y-102602000D01*
X173868500Y-106712400D02*
X169758100Y-102602000D01*
X173868500Y-108270000D02*
X173868500Y-106712400D01*
%TO.N,Net-(R5-Pad1)*%
X175668500Y-108745000D02*
X176143500Y-108270000D01*
X173210900Y-108745000D02*
X175668500Y-108745000D01*
X172972200Y-108506300D02*
X173210900Y-108745000D01*
X172972200Y-106162600D02*
X172972200Y-108506300D01*
X171563200Y-104753600D02*
X172972200Y-106162600D01*
X170782000Y-104753600D02*
X171563200Y-104753600D01*
X170434000Y-105101600D02*
X170782000Y-104753600D01*
X170434000Y-109411000D02*
X170434000Y-105101600D01*
X169609000Y-110236000D02*
X170434000Y-109411000D01*
%TO.N,PA0*%
X156596000Y-102348700D02*
X156596000Y-102598500D01*
X155852600Y-101605300D02*
X156596000Y-102348700D01*
X155773600Y-101605300D02*
X155852600Y-101605300D01*
X140958700Y-107684700D02*
X140718000Y-107444000D01*
X141384500Y-107684700D02*
X140958700Y-107684700D01*
X143170700Y-107327800D02*
X143379000Y-107119500D01*
X142562200Y-107327800D02*
X143170700Y-107327800D01*
%TO.N,SD_CD*%
X153999300Y-106286000D02*
X154908500Y-106286000D01*
X152242400Y-104529100D02*
X153999300Y-106286000D01*
X152242400Y-102779300D02*
X152242400Y-104529100D01*
X149684600Y-100221500D02*
X152242400Y-102779300D01*
X139294000Y-100221500D02*
X149684600Y-100221500D01*
%TO.N,SD_CS*%
X143029000Y-90371500D02*
X143029000Y-89671200D01*
X154908500Y-105786000D02*
X153994600Y-105786000D01*
X160136500Y-95693100D02*
X156977900Y-95693100D01*
X161031600Y-94798000D02*
X160136500Y-95693100D01*
X161031600Y-89718300D02*
X161031600Y-94798000D01*
X159674500Y-88361200D02*
X161031600Y-89718300D01*
X144339000Y-88361200D02*
X159674500Y-88361200D01*
X143029000Y-89671200D02*
X144339000Y-88361200D01*
X155308100Y-94343900D02*
X154776000Y-94876000D01*
X155996900Y-94343900D02*
X155308100Y-94343900D01*
X156977900Y-95324900D02*
X155996900Y-94343900D01*
X156977900Y-95693100D02*
X156977900Y-95324900D01*
%TO.N,/sel2*%
X144679000Y-113877300D02*
X139684300Y-118872000D01*
X144679000Y-112844500D02*
X144679000Y-113877300D01*
X138684000Y-118872000D02*
X139684300Y-118872000D01*
%TO.N,/ack*%
X145329000Y-113766700D02*
X141224000Y-117871700D01*
X145329000Y-112844500D02*
X145329000Y-113766700D01*
X141224000Y-118872000D02*
X141224000Y-117871700D01*
%TO.N,/din*%
X145979000Y-115656700D02*
X143764000Y-117871700D01*
X145979000Y-112844500D02*
X145979000Y-115656700D01*
X143764000Y-118872000D02*
X143764000Y-117871700D01*
%TO.N,/x_out*%
X146629000Y-117546700D02*
X146304000Y-117871700D01*
X146629000Y-112844500D02*
X146629000Y-117546700D01*
X146304000Y-118872000D02*
X146304000Y-117871700D01*
%TO.N,/x_in*%
X147279000Y-116306700D02*
X148844000Y-117871700D01*
X147279000Y-112844500D02*
X147279000Y-116306700D01*
X148844000Y-118872000D02*
X148844000Y-117871700D01*
%TO.N,/dout*%
X147929000Y-114416700D02*
X151384000Y-117871700D01*
X147929000Y-112844500D02*
X147929000Y-114416700D01*
X151384000Y-118872000D02*
X151384000Y-117871700D01*
%TO.N,/busy*%
X149229000Y-113176700D02*
X153924000Y-117871700D01*
X149229000Y-112844500D02*
X149229000Y-113176700D01*
X153924000Y-118872000D02*
X153924000Y-117871700D01*
D56*
%TO.N,/vgg*%
X159004000Y-118872000D02*
X160154300Y-118872000D01*
X160154300Y-118058500D02*
X160154300Y-118872000D01*
X161175900Y-117036900D02*
X160154300Y-118058500D01*
X163702100Y-117036900D02*
X161175900Y-117036900D01*
X164951500Y-115787500D02*
X163702100Y-117036900D01*
X164734000Y-115570000D02*
X164951500Y-115787500D01*
X168798000Y-119634000D02*
X170434000Y-119634000D01*
X164951500Y-115787500D02*
X168798000Y-119634000D01*
D55*
%TO.N,/mt_out2*%
X163306300Y-119634000D02*
X162544300Y-118872000D01*
X165834000Y-119634000D02*
X163306300Y-119634000D01*
X161544000Y-118872000D02*
X162544300Y-118872000D01*
D56*
%TO.N,/vccb*%
X148579000Y-112180100D02*
X148579000Y-112844500D01*
X150241100Y-110518000D02*
X148579000Y-112180100D01*
X151780000Y-110518000D02*
X150241100Y-110518000D01*
X154303200Y-113041200D02*
X151780000Y-110518000D01*
X163434000Y-113041200D02*
X154303200Y-113041200D01*
X163434000Y-115570000D02*
X163434000Y-113041200D01*
X163434000Y-113041200D02*
X163434000Y-112268000D01*
D55*
%TO.N,Net-(D3-Pad2)*%
X173964500Y-100316000D02*
X171259000Y-100316000D01*
%TO.N,Net-(D2-Pad1)*%
X171259000Y-102602000D02*
X173964500Y-102602000D01*
%TO.N,SPI1_MOSI*%
X144129000Y-90371500D02*
X144129000Y-89671200D01*
X154452600Y-105286000D02*
X154908500Y-105286000D01*
X154204100Y-105037500D02*
X154452600Y-105286000D01*
X157338000Y-94896000D02*
X157338000Y-95296900D01*
X154778000Y-92336000D02*
X157338000Y-94896000D01*
X157388200Y-95347100D02*
X157338000Y-95296900D01*
X160188700Y-95347100D02*
X157388200Y-95347100D01*
X160831200Y-94704600D02*
X160188700Y-95347100D01*
X160831200Y-89830500D02*
X160831200Y-94704600D01*
X159562400Y-88561700D02*
X160831200Y-89830500D01*
X145238500Y-88561700D02*
X159562400Y-88561700D01*
X144129000Y-89671200D02*
X145238500Y-88561700D01*
%TO.N,SPI1_MISO*%
X148529000Y-90371500D02*
X148529000Y-91071800D01*
X150094700Y-92637500D02*
X152708400Y-92637500D01*
X148529000Y-91071800D02*
X150094700Y-92637500D01*
X153748000Y-91597900D02*
X152708400Y-92637500D01*
X158127900Y-91597900D02*
X153748000Y-91597900D01*
X158866000Y-92336000D02*
X158127900Y-91597900D01*
X152708400Y-103368900D02*
X152708400Y-92637500D01*
X153944000Y-104604500D02*
X152708400Y-103368900D01*
X154727000Y-104604500D02*
X153944000Y-104604500D01*
X154908500Y-104786000D02*
X154727000Y-104604500D01*
%TO.N,SPI1_SCK*%
X146329000Y-90371500D02*
X146329000Y-89671200D01*
X146578600Y-89421600D02*
X146612300Y-89421600D01*
X146329000Y-89671200D02*
X146578600Y-89421600D01*
X156464500Y-92176300D02*
X156464500Y-92285800D01*
X156136500Y-91848300D02*
X156464500Y-92176300D01*
X154485500Y-91848300D02*
X156136500Y-91848300D01*
X154326300Y-92007500D02*
X154485500Y-91848300D01*
X154326300Y-100667900D02*
X154326300Y-92007500D01*
X155631900Y-101973500D02*
X154326300Y-100667900D01*
X155733400Y-101973500D02*
X155631900Y-101973500D01*
X156096000Y-102336100D02*
X155733400Y-101973500D01*
X156096000Y-102598500D02*
X156096000Y-102336100D01*
X158868000Y-94447900D02*
X158868000Y-94876000D01*
X156705900Y-92285800D02*
X158868000Y-94447900D01*
X156464500Y-92285800D02*
X156705900Y-92285800D01*
%TO.N,/BOOT0*%
X164988000Y-97932500D02*
X164988000Y-97028000D01*
X164714200Y-98206300D02*
X164988000Y-97932500D01*
X160648900Y-103786000D02*
X159783500Y-103786000D01*
X160648900Y-103786000D02*
X160648900Y-103414500D01*
X160648900Y-106074000D02*
X160648900Y-103786000D01*
X162950300Y-108375400D02*
X160648900Y-106074000D01*
X162950300Y-109807500D02*
X162950300Y-108375400D01*
X163460300Y-110317500D02*
X162950300Y-109807500D01*
X164741600Y-110317500D02*
X163460300Y-110317500D01*
X164946100Y-110113000D02*
X164741600Y-110317500D01*
X165386800Y-110113000D02*
X164946100Y-110113000D01*
X169194200Y-113920400D02*
X165386800Y-110113000D01*
X171845100Y-113920400D02*
X169194200Y-113920400D01*
X173901700Y-115977000D02*
X171845100Y-113920400D01*
X173901700Y-119497700D02*
X173901700Y-115977000D01*
X173797500Y-119601900D02*
X173901700Y-119497700D01*
X172619000Y-119601900D02*
X173797500Y-119601900D01*
X165507000Y-112489900D02*
X172619000Y-119601900D01*
X165507000Y-111845300D02*
X165507000Y-112489900D01*
X164919900Y-111258200D02*
X165507000Y-111845300D01*
X160790200Y-111258200D02*
X164919900Y-111258200D01*
X160020000Y-110488000D02*
X160790200Y-111258200D01*
%TO.N,unconnected-(J3-Pad6)*%
X182313700Y-101840400D02*
X181464300Y-100991000D01*
X182313700Y-101878500D02*
X182313700Y-101840400D01*
X180664000Y-100991000D02*
X181464300Y-100991000D01*
X183239000Y-101878500D02*
X182313700Y-101878500D01*
X182026500Y-102165700D02*
X182313700Y-101878500D01*
X180664000Y-102165700D02*
X182026500Y-102165700D01*
X180664000Y-103216000D02*
X180664000Y-102165700D01*
X180066000Y-104266300D02*
X180664000Y-104266300D01*
X179563700Y-104768600D02*
X180066000Y-104266300D01*
X179563700Y-105916000D02*
X179563700Y-104768600D01*
X180664000Y-103216000D02*
X180664000Y-104266300D01*
X180664000Y-105916000D02*
X181764300Y-105916000D01*
X180664000Y-107741000D02*
X181464300Y-107741000D01*
X180664000Y-105916000D02*
X179563700Y-105916000D01*
X183239000Y-106853500D02*
X182313700Y-106853500D01*
X181764300Y-106853500D02*
X182313700Y-106853500D01*
X181764300Y-107441000D02*
X181764300Y-106853500D01*
X181464300Y-107741000D02*
X181764300Y-107441000D01*
X181764300Y-106853500D02*
X181764300Y-105916000D01*
%TO.N,PA8*%
X145979000Y-107615300D02*
X145979000Y-107119500D01*
X146878900Y-108515200D02*
X145979000Y-107615300D01*
X155299000Y-108515200D02*
X146878900Y-108515200D01*
X156096000Y-107718200D02*
X155299000Y-108515200D01*
X156096000Y-107473500D02*
X156096000Y-107718200D01*
%TO.N,SWCLK*%
X173056200Y-113622200D02*
X173480000Y-114046000D01*
X172774500Y-113622200D02*
X173056200Y-113622200D01*
X159432700Y-107473500D02*
X159742600Y-107783400D01*
X159096000Y-107473500D02*
X159432700Y-107473500D01*
%TO.N,SWDIO*%
X171322000Y-114174000D02*
X173480000Y-116332000D01*
X168801800Y-114174000D02*
X171322000Y-114174000D01*
X165091100Y-110463300D02*
X168801800Y-114174000D01*
X158596000Y-107735700D02*
X159192800Y-108332500D01*
X158596000Y-107473500D02*
X158596000Y-107735700D01*
%TO.N,Net-(D4-Pad1)*%
X171842900Y-95542100D02*
X169609000Y-97776000D01*
X171842900Y-92241100D02*
X171842900Y-95542100D01*
X171663100Y-92061300D02*
X171842900Y-92241100D01*
X170281200Y-92061300D02*
X171663100Y-92061300D01*
X169646500Y-92696000D02*
X170281200Y-92061300D01*
D57*
%TO.N,/V_BAT*%
X168595000Y-109000000D02*
X169659000Y-107936000D01*
X168595000Y-110844100D02*
X168595000Y-109000000D01*
X169074600Y-111323700D02*
X168595000Y-110844100D01*
X172714800Y-111323700D02*
X169074600Y-111323700D01*
X173868500Y-110170000D02*
X172714800Y-111323700D01*
X176824000Y-91212000D02*
X175020000Y-89408000D01*
X179814000Y-91212000D02*
X176824000Y-91212000D01*
X168225100Y-106502100D02*
X168225100Y-104429900D01*
X169659000Y-107936000D02*
X168225100Y-106502100D01*
D55*
%TO.N,USB_D-*%
X182359700Y-103840000D02*
X182483700Y-103716000D01*
X181995700Y-103840000D02*
X182359700Y-103840000D01*
X183324000Y-103716000D02*
X182483700Y-103716000D01*
X158192500Y-108583900D02*
X158692600Y-108583900D01*
X157596000Y-107987400D02*
X158192500Y-108583900D01*
X157596000Y-107473500D02*
X157596000Y-107987400D01*
%TO.N,USB_D+*%
X182229500Y-104620200D02*
X182483700Y-104366000D01*
X180269400Y-104620200D02*
X182229500Y-104620200D01*
X183324000Y-104366000D02*
X182483700Y-104366000D01*
X158096000Y-107972200D02*
X158338900Y-108215100D01*
X158096000Y-107473500D02*
X158096000Y-107972200D01*
X158811800Y-110938200D02*
X158242000Y-111508000D01*
X158811800Y-109887600D02*
X158811800Y-110938200D01*
D56*
%TO.N,+5V*%
X176068500Y-105335900D02*
X176068500Y-105396000D01*
X176807500Y-104596900D02*
X176068500Y-105335900D01*
X183324000Y-103066000D02*
X182333700Y-103066000D01*
X182188700Y-102921000D02*
X182026800Y-102921000D01*
X182333700Y-103066000D02*
X182188700Y-102921000D01*
%TO.N,VPP*%
X174692400Y-105396000D02*
X173943500Y-105396000D01*
X177109100Y-107812700D02*
X174692400Y-105396000D01*
X177109100Y-109204400D02*
X177109100Y-107812700D01*
X176143500Y-110170000D02*
X177109100Y-109204400D01*
X174692400Y-103449100D02*
X175539500Y-102602000D01*
X174692400Y-105396000D02*
X174692400Y-103449100D01*
X174440200Y-101502700D02*
X175539500Y-102602000D01*
X171258700Y-101502700D02*
X174440200Y-101502700D01*
X170434000Y-100678000D02*
X171258700Y-101502700D01*
X163975300Y-113421100D02*
X163940100Y-113421100D01*
X164734000Y-112662400D02*
X163975300Y-113421100D01*
X164734000Y-112268000D02*
X164734000Y-112662400D01*
X169680400Y-94732100D02*
X169684500Y-94728000D01*
X169680400Y-95614000D02*
X169680400Y-94732100D01*
D55*
%TO.N,Net-(D1-Pad1)*%
X170582400Y-114662900D02*
X170493300Y-114662900D01*
X171221500Y-115302000D02*
X170582400Y-114662900D01*
X171259000Y-112762000D02*
X170493300Y-112762000D01*
%TO.N,/HSE_IN*%
X164084000Y-107006000D02*
X164084000Y-106430800D01*
X163604000Y-106910800D02*
X163604000Y-109728000D01*
X164084000Y-106430800D02*
X163604000Y-106910800D01*
X158596000Y-102337100D02*
X158596000Y-102598500D01*
X158930300Y-102002800D02*
X158596000Y-102337100D01*
X159732600Y-102002800D02*
X158930300Y-102002800D01*
X164084000Y-106354200D02*
X159732600Y-102002800D01*
X164084000Y-106430800D02*
X164084000Y-106354200D01*
%TO.N,/HSE_OUT*%
X164084000Y-103306000D02*
X164084000Y-102155700D01*
X164084000Y-102155700D02*
X162931200Y-101002800D01*
X162793700Y-101140300D02*
X162931200Y-101002800D01*
X159263700Y-101140300D02*
X162793700Y-101140300D01*
X158096000Y-102308000D02*
X159263700Y-101140300D01*
X158096000Y-102598500D02*
X158096000Y-102308000D01*
X162931200Y-101002800D02*
X163604000Y-100330000D01*
D56*
%TO.N,+3.3VA*%
X154811000Y-99928000D02*
X154806000Y-99933000D01*
X156442000Y-99928000D02*
X154811000Y-99928000D01*
X157096000Y-99928000D02*
X157096000Y-102598500D01*
X158220000Y-99928000D02*
X157096000Y-99928000D01*
X157096000Y-99928000D02*
X156442000Y-99928000D01*
%TO.N,+3V3*%
X161085300Y-97028000D02*
X163688000Y-97028000D01*
X160214900Y-97898400D02*
X161085300Y-97028000D01*
X159096000Y-102598500D02*
X159640700Y-102598500D01*
X148579000Y-107780000D02*
X148579000Y-107119500D01*
X148956800Y-108157800D02*
X148579000Y-107780000D01*
X151148200Y-108157800D02*
X148956800Y-108157800D01*
X151892000Y-107414000D02*
X151148200Y-108157800D01*
X178136000Y-113270000D02*
X176635700Y-113270000D01*
X155870600Y-94950600D02*
X155796000Y-94876000D01*
X155870600Y-97898400D02*
X155870600Y-94950600D01*
X160214900Y-97898400D02*
X155870600Y-97898400D01*
X155870600Y-97898400D02*
X154806000Y-98963000D01*
X156423400Y-92961400D02*
X155798000Y-92336000D01*
X156739100Y-92961400D02*
X156423400Y-92961400D01*
X163688000Y-96587000D02*
X163688000Y-97028000D01*
X166568900Y-93706100D02*
X163688000Y-96587000D01*
X170211400Y-93706100D02*
X166568900Y-93706100D01*
X171221500Y-92696000D02*
X170211400Y-93706100D01*
X159888000Y-94187700D02*
X159888000Y-94876000D01*
X160079500Y-93996200D02*
X159888000Y-94187700D01*
X156453000Y-110488000D02*
X156210000Y-110731000D01*
X158242000Y-110488000D02*
X156453000Y-110488000D01*
X159886000Y-93802700D02*
X159886000Y-92336000D01*
X160079500Y-93996200D02*
X159886000Y-93802700D01*
X145229000Y-90371500D02*
X145229000Y-89521200D01*
X160474100Y-91245000D02*
X159960800Y-91758300D01*
X160474100Y-89984200D02*
X160474100Y-91245000D01*
X159402000Y-88912100D02*
X160474100Y-89984200D01*
X145838100Y-88912100D02*
X159402000Y-88912100D01*
X145229000Y-89521200D02*
X145838100Y-88912100D01*
X159886000Y-91833100D02*
X159960800Y-91758300D01*
X159886000Y-92336000D02*
X159886000Y-91833100D01*
X158898000Y-90695500D02*
X158898000Y-90304000D01*
X159960800Y-91758300D02*
X158898000Y-90695500D01*
X154898500Y-107414000D02*
X151892000Y-107414000D01*
X154958000Y-107473500D02*
X154898500Y-107414000D01*
X155596000Y-107473500D02*
X154958000Y-107473500D01*
X154898500Y-107414000D02*
X154898500Y-107340700D01*
X177509700Y-102320600D02*
X176302800Y-101113700D01*
X177509700Y-111893300D02*
X177509700Y-102320600D01*
X176635700Y-112767300D02*
X177509700Y-111893300D01*
X176635700Y-113270000D02*
X176635700Y-112767300D01*
X176302800Y-96910300D02*
X174068500Y-94676000D01*
X176302800Y-101113700D02*
X176302800Y-96910300D01*
X160634700Y-99291300D02*
X160721300Y-99291300D01*
X159998000Y-99928000D02*
X160634700Y-99291300D01*
X168303600Y-99291300D02*
X168842800Y-99830500D01*
X160721300Y-99291300D02*
X168303600Y-99291300D01*
X169144200Y-99529100D02*
X168842800Y-99830500D01*
X174434200Y-99529100D02*
X169144200Y-99529100D01*
X174752000Y-99846900D02*
X174434200Y-99529100D01*
X174752000Y-100758400D02*
X174752000Y-99846900D01*
X175107300Y-101113700D02*
X174752000Y-100758400D01*
X176302800Y-101113700D02*
X175107300Y-101113700D01*
X169646000Y-103998700D02*
X169646000Y-105396000D01*
X168842800Y-103195500D02*
X169646000Y-103998700D01*
X168842800Y-99830500D02*
X168842800Y-103195500D01*
X155609500Y-110130500D02*
X154948100Y-110130500D01*
X156210000Y-110731000D02*
X155609500Y-110130500D01*
X154565500Y-110130500D02*
X154178000Y-110518000D01*
X154948100Y-110130500D02*
X154565500Y-110130500D01*
D57*
%TO.N,VCC*%
X173202400Y-93726000D02*
X175943500Y-93726000D01*
X172718300Y-94210100D02*
X173202400Y-93726000D01*
X172718300Y-96517300D02*
X172718300Y-94210100D01*
X173977000Y-97776000D02*
X172718300Y-96517300D01*
X178599700Y-93726000D02*
X178613700Y-93712000D01*
X175943500Y-93726000D02*
X178599700Y-93726000D01*
X179814000Y-93712000D02*
X178613700Y-93712000D01*
D56*
%TO.N,GND*%
X150789000Y-90721500D02*
X150789000Y-89707300D01*
X170700500Y-89408000D02*
X170420000Y-89408000D01*
X174068500Y-92776000D02*
X170700500Y-89408000D01*
X180472100Y-92776000D02*
X174068500Y-92776000D01*
X181286600Y-93590500D02*
X180472100Y-92776000D01*
X181286600Y-97692400D02*
X181286600Y-93590500D01*
X184314300Y-100720100D02*
X181286600Y-97692400D01*
X184314300Y-105666000D02*
X184314300Y-100720100D01*
X183324000Y-105666000D02*
X184314300Y-105666000D01*
X178136000Y-115810000D02*
X177385900Y-115810000D01*
X142794000Y-101196500D02*
X141543700Y-101196500D01*
X148764000Y-101196500D02*
X142794000Y-101196500D01*
X139469000Y-90496500D02*
X139469000Y-91471800D01*
X140718000Y-102022200D02*
X141543700Y-101196500D01*
X147429000Y-90371500D02*
X147429000Y-91221800D01*
X138393600Y-92547200D02*
X139469000Y-91471800D01*
X138393600Y-100860100D02*
X138393600Y-92547200D01*
X139555700Y-102022200D02*
X138393600Y-100860100D01*
X140718000Y-102022200D02*
X139555700Y-102022200D01*
X147179000Y-91471800D02*
X147429000Y-91221800D01*
X139469000Y-91471800D02*
X147179000Y-91471800D01*
X148764000Y-101196500D02*
X148764000Y-102171800D01*
X151892000Y-105299800D02*
X148764000Y-102171800D01*
X151892000Y-106454000D02*
X151892000Y-105299800D01*
X152224000Y-106786000D02*
X154908500Y-106786000D01*
X151892000Y-106454000D02*
X152224000Y-106786000D01*
X155646500Y-106735500D02*
X157346000Y-105036000D01*
X154959000Y-106735500D02*
X155646500Y-106735500D01*
X154908500Y-106786000D02*
X154959000Y-106735500D01*
X159733000Y-103336500D02*
X159783500Y-103286000D01*
X159045500Y-103336500D02*
X159733000Y-103336500D01*
X157346000Y-105036000D02*
X159045500Y-103336500D01*
X159363900Y-99602100D02*
X159998000Y-98968000D01*
X178136000Y-118350000D02*
X176635700Y-118350000D01*
X176635700Y-116560200D02*
X176635700Y-118350000D01*
X177385900Y-115810000D02*
X176635700Y-116560200D01*
X150789000Y-89707300D02*
X150789000Y-89693100D01*
X159247100Y-89693100D02*
X159858000Y-90304000D01*
X150789000Y-89693100D02*
X159247100Y-89693100D01*
X150617100Y-89521200D02*
X147429000Y-89521200D01*
X150789000Y-89693100D02*
X150617100Y-89521200D01*
X147429000Y-90371500D02*
X147429000Y-89521200D01*
X159858000Y-90930200D02*
X159967000Y-91039200D01*
X159858000Y-90304000D02*
X159858000Y-90930200D01*
X156210000Y-112281000D02*
X158186600Y-112281000D01*
X159247000Y-112281000D02*
X160020000Y-111508000D01*
X158186600Y-112281000D02*
X159247000Y-112281000D01*
X171196000Y-107923000D02*
X171196000Y-105396000D01*
X171209000Y-107936000D02*
X171196000Y-107923000D01*
X171234500Y-94178200D02*
X171234500Y-94728000D01*
X170905400Y-93849100D02*
X171234500Y-94178200D01*
X178136000Y-114540000D02*
X176635700Y-114540000D01*
X176508800Y-114932900D02*
X177385900Y-115810000D01*
X176508800Y-114666900D02*
X176508800Y-114932900D01*
X176508800Y-114666900D02*
X176635700Y-114540000D01*
X140718000Y-102022200D02*
X140718000Y-106424000D01*
X143379000Y-108911800D02*
X143379000Y-109904300D01*
X140891200Y-106424000D02*
X143379000Y-108911800D01*
X140718000Y-106424000D02*
X140891200Y-106424000D01*
X143379000Y-109904300D02*
X143379000Y-112844500D01*
X152604300Y-109904300D02*
X154178000Y-111478000D01*
X143379000Y-109904300D02*
X152604300Y-109904300D01*
X154981000Y-112281000D02*
X156210000Y-112281000D01*
X154178000Y-111478000D02*
X154981000Y-112281000D01*
X173093800Y-114666900D02*
X176508800Y-114666900D01*
X171936000Y-113509100D02*
X173093800Y-114666900D01*
X168543200Y-98734600D02*
X168851200Y-98426600D01*
X160231400Y-98734600D02*
X168543200Y-98734600D01*
X159998000Y-98968000D02*
X160231400Y-98734600D01*
X151780000Y-113037700D02*
X151780000Y-111478000D01*
X156464000Y-117721700D02*
X151780000Y-113037700D01*
X156464000Y-118872000D02*
X156464000Y-117721700D01*
X168993000Y-98568400D02*
X168851200Y-98426600D01*
X170466600Y-98568400D02*
X168993000Y-98568400D01*
X171259000Y-97776000D02*
X170466600Y-98568400D01*
X175539500Y-99344300D02*
X175539500Y-100316000D01*
X174749100Y-98553900D02*
X175539500Y-99344300D01*
X172036900Y-98553900D02*
X174749100Y-98553900D01*
X171259000Y-97776000D02*
X172036900Y-98553900D01*
X174749100Y-98553900D02*
X175527000Y-97776000D01*
X159363900Y-100229900D02*
X159363900Y-99602100D01*
X159646300Y-100512300D02*
X159363900Y-100229900D01*
X160591900Y-100512300D02*
X159646300Y-100512300D01*
X161385100Y-99719100D02*
X160591900Y-100512300D01*
X163953100Y-99719100D02*
X161385100Y-99719100D01*
X164564000Y-100330000D02*
X163953100Y-99719100D01*
X165590200Y-101356200D02*
X164564000Y-100330000D01*
X165590200Y-109728000D02*
X165590200Y-101356200D01*
X165590200Y-109728000D02*
X164564000Y-109728000D01*
X171880600Y-113564500D02*
X171936000Y-113509100D01*
X170411500Y-113564500D02*
X171880600Y-113564500D01*
X169609000Y-112762000D02*
X170411500Y-113564500D01*
X171234500Y-94849700D02*
X171234500Y-94728000D01*
X168851200Y-97233000D02*
X171234500Y-94849700D01*
X168851200Y-98426600D02*
X168851200Y-97233000D01*
X168624200Y-112762000D02*
X165590200Y-109728000D01*
X169609000Y-112762000D02*
X168624200Y-112762000D01*
X158729800Y-98968000D02*
X158220000Y-98968000D01*
X159363900Y-99602100D02*
X158729800Y-98968000D01*
X158220000Y-98968000D02*
X156442000Y-98968000D01*
X174282700Y-109220000D02*
X173868500Y-109220000D01*
X174834600Y-109771900D02*
X174282700Y-109220000D01*
X174834600Y-110610500D02*
X174834600Y-109771900D01*
X171936000Y-113509100D02*
X174834600Y-110610500D01*
X172275000Y-109002000D02*
X171209000Y-107936000D01*
X172275000Y-109220000D02*
X172275000Y-109002000D01*
X173868500Y-109220000D02*
X172275000Y-109220000D01*
X172275000Y-109220000D02*
X171259000Y-110236000D01*
%TD*%
M02*
